<?xml version="1.0" standalone="no"?>
<!DOCTYPE svg PUBLIC "-//W3C//DTD SVG 20010904//EN"
 "http://www.w3.org/TR/2001/REC-SVG-20010904/DTD/svg10.dtd">
<svg version="1.0" xmlns="http://www.w3.org/2000/svg"
 width="400.000000pt" height="400.000000pt" viewBox="0 0 400.000000 400.000000"
 preserveAspectRatio="xMidYMid meet">
<metadata>
Created by potrace 1.16, written by Peter Selinger 2001-2019
</metadata>
<g transform="translate(0.000000,400.000000) scale(0.100000,-0.100000)"
fill="#000000" stroke="none">
<path d="M1451 1367 c-8 -10 -3 -21 20 -45 43 -44 75 -48 159 -18 87 32 117
32 146 5 28 -26 60 -19 45 9 -13 25 -55 52 -83 54 -13 1 -59 -11 -104 -26 -88
-29 -121 -26 -146 14 -15 23 -22 25 -37 7z"/>
<path d="M1050 1274 c-19 -13 -89 -51 -155 -83 -140 -69 -167 -88 -189 -136
-13 -26 -14 -40 -6 -55 6 -11 15 -20 20 -20 27 0 242 -105 402 -197 46 -26
114 30 90 73 -6 11 -78 49 -164 87 -84 37 -162 74 -172 82 -19 15 -19 16 7 43
28 29 64 49 167 95 62 27 120 72 120 92 0 18 -39 45 -65 45 -11 -1 -36 -12
-55 -26z"/>
<path d="M2737 1282 c-10 -10 -17 -23 -17 -29 0 -19 61 -50 155 -79 64 -20 99
-37 125 -61 34 -33 35 -34 15 -49 -35 -26 -192 -138 -234 -166 -63 -43 -53
-101 14 -84 13 3 70 41 126 84 55 42 121 91 146 108 59 42 93 75 93 90 0 35
-107 106 -238 161 -115 47 -160 53 -185 25z"/>
<path d="M2261 1167 c-51 -18 -76 -58 -74 -117 4 -88 55 -153 121 -153 77 0
116 49 116 143 -1 75 -24 116 -72 129 -45 13 -48 13 -91 -2z m63 -103 c21 -21
20 -37 -3 -58 -15 -14 -24 -15 -40 -6 -12 6 -21 12 -21 15 0 2 -3 10 -6 18 -6
16 20 47 41 47 7 0 21 -7 29 -16z"/>
<path d="M1563 1135 c-34 -34 -35 -38 -31 -95 14 -192 238 -198 238 -6 0 56
-21 111 -48 125 -12 6 -44 11 -72 11 -46 0 -56 -4 -87 -35z m117 -70 c26 -32
-13 -81 -47 -59 -35 22 -23 74 17 74 10 0 23 -7 30 -15z"/>
<path d="M1890 763 c0 -14 44 -75 63 -88 28 -20 82 -19 117 2 15 9 38 35 50
57 l22 41 -23 -27 c-33 -37 -60 -48 -114 -48 -40 0 -52 5 -81 34 -19 19 -34
32 -34 29z"/>
<path d="M1710 606 c-19 -8 -68 -30 -108 -51 -117 -59 -177 -60 -275 -1 l-57
35 0 -67 c0 -162 101 -255 290 -269 170 -12 328 68 375 192 17 43 17 51 4 89
-11 33 -23 46 -59 64 -50 25 -115 28 -170 8z"/>
<path d="M2090 598 c-36 -18 -48 -32 -59 -64 -13 -38 -13 -46 4 -89 64 -168
333 -248 521 -155 100 49 143 120 144 237 l0 62 -57 -35 c-101 -61 -157 -59
-299 11 -120 59 -186 68 -254 33z"/>
</g>
</svg>
