<svg xmlns="http://www.w3.org/2000/svg" width="300" height="300" preserveAspectRatio="xMidYMid meet" version="1.0" viewBox="0 0 225 225"><metadata>Created by potrace 1.16, written by Peter Selinger 2001-2019</metadata><g fill="#000" stroke="none"><path d="M664 1325 c0 -60 1 -84 3 -52 2 32 2 81 0 110 -2 29 -3 3 -3 -58z" transform="translate(0.000000,225.000000) scale(0.100000,-0.100000)"/><path d="M664 980 c0 -107 2 -151 3 -97 2 53 2 141 0 195 -1 53 -3 9 -3 -98z" transform="translate(0.000000,225.000000) scale(0.100000,-0.100000)"/><path d="M933 613 c9 -2 25 -2 35 0 9 3 1 5 -18 5 -19 0 -27 -2 -17 -5z" transform="translate(0.000000,225.000000) scale(0.100000,-0.100000)"/></g></svg>