<?xml version="1.0" standalone="no"?>
<!DOCTYPE svg PUBLIC "-//W3C//DTD SVG 20010904//EN"
 "http://www.w3.org/TR/2001/REC-SVG-20010904/DTD/svg10.dtd">
<svg version="1.0" xmlns="http://www.w3.org/2000/svg"
 width="3500.000000pt" height="3500.000000pt" viewBox="0 0 3500.000000 3500.000000"
 preserveAspectRatio="xMidYMid meet">
<metadata>
Created by potrace 1.16, written by Peter Selinger 2001-2019
</metadata>
<g transform="translate(0.000000,3500.000000) scale(0.100000,-0.100000)"
fill="#000000" stroke="none">
<path d="M0 17500 l0 -17500 9345 0 9345 0 0 6775 0 6775 -2280 0 -2280 0 0
2645 0 2645 2280 0 2279 0 4 2193 c4 2269 4 2253 48 2702 131 1339 537 2501
1204 3440 363 511 823 971 1330 1330 951 672 2090 1064 3434 1180 365 31 738
38 1399 26 1287 -23 2502 -91 3325 -186 71 -8 131 -15 133 -15 2 0 4 -1064 4
-2364 l0 -2365 -1577 -4 c-1102 -3 -1613 -8 -1693 -16 -629 -63 -1038 -191
-1375 -430 -123 -87 -298 -267 -384 -395 -176 -264 -284 -575 -341 -976 -43
-311 -43 -305 -47 -2247 l-4 -1873 2615 0 c2086 0 2616 -3 2616 -12 0 -17
-669 -5227 -676 -5255 l-4 -23 -2275 0 -2275 0 0 -6775 0 -6775 5425 0 5425 0
0 17500 0 17500 -17500 0 -17500 0 0 -17500z"/>
</g>
</svg>
