<svg xmlns="http://www.w3.org/2000/svg" width="300" height="300" preserveAspectRatio="xMidYMid meet" version="1.0" viewBox="0 0 225 225"><metadata>Created by potrace 1.16, written by Peter Selinger 2001-2019</metadata><g fill="#000" stroke="none"><path d="M175 2241 c-69 -17 -116 -55 -151 -121 -18 -33 -19 -77 -19 -995 0 -918 1 -962 19 -995 26 -49 55 -79 101 -103 l40 -22 960 0 960 0 40 22 c46 24 75 54 101 103 18 33 19 77 19 995 l0 960 -22 40 c-24 46 -54 75 -103 101 -33 18 -78 19 -975 21 -517 0 -953 -2 -970 -6z m835 -886 l0 -285 55 0 55 0 0 285 0 285 60 0 60 0 0 -55 0 -55 115 0 115 0 0 -115 0 -115 60 0 60 0 0 -175 0 -175 -60 0 -60 0 0 -115 0 -115 -115 0 -115 0 0 -55 0 -55 -175 0 -175 0 0 55 0 55 -115 0 -115 0 0 115 0 115 -55 0 -55 0 0 175 0 175 55 0 55 0 0 115 0 115 115 0 115 0 0 55 0 55 60 0 60 0 0 -285z" transform="translate(0.000000,225.000000) scale(0.100000,-0.100000)"/></g></svg>