<?xml version="1.0" standalone="no"?>
<!DOCTYPE svg PUBLIC "-//W3C//DTD SVG 20010904//EN"
 "http://www.w3.org/TR/2001/REC-SVG-20010904/DTD/svg10.dtd">
<svg version="1.0" xmlns="http://www.w3.org/2000/svg"
 width="1446.000000pt" height="1596.000000pt" viewBox="0 0 1446.000000 1596.000000"
 preserveAspectRatio="xMidYMid meet">
<metadata>
Created by potrace 1.16, written by Peter Selinger 2001-2019
</metadata>
<g transform="translate(0.000000,1596.000000) scale(0.100000,-0.100000)"
fill="#000000" stroke="none">
<path d="M0 7980 l0 -7980 7230 0 7230 0 0 7980 0 7980 -7230 0 -7230 0 0
-7980z m5280 4473 c25 -16 625 -571 1014 -938 164 -154 195 -197 196 -263 0
-40 -24 -99 -53 -131 -46 -50 -90 -61 -249 -61 l-148 0 0 -1110 0 -1110 1190
0 1190 0 0 1265 c0 1250 0 1266 20 1305 11 22 39 52 62 67 l42 28 727 0 727 0
43 -30 c23 -16 50 -46 60 -65 18 -34 19 -139 19 -3271 l0 -3237 163 -4 c149
-3 165 -5 200 -26 77 -49 110 -162 71 -245 -17 -36 -1152 -1100 -1202 -1127
-15 -8 -52 -14 -82 -14 -30 0 -67 6 -82 14 -15 8 -269 240 -565 516 -296 275
-555 516 -576 534 -21 18 -47 50 -58 71 -42 83 -12 197 64 247 39 26 46 27
204 30 l163 4 0 1109 0 1109 -1190 0 -1190 0 0 -1257 c0 -1199 -1 -1260 -19
-1298 -23 -50 -70 -91 -121 -105 -26 -7 -272 -9 -732 -8 -681 3 -694 3 -733
24 -22 11 -53 40 -70 63 l-30 43 -3 3239 -2 3239 -148 0 c-121 0 -154 4 -187
19 -101 45 -140 164 -89 263 12 23 1098 1044 1168 1099 54 42 151 47 206 12z"/>
</g>
</svg>
