<?xml version="1.0" standalone="no"?>
<!DOCTYPE svg PUBLIC "-//W3C//DTD SVG 20010904//EN"
 "http://www.w3.org/TR/2001/REC-SVG-20010904/DTD/svg10.dtd">
<svg version="1.0" xmlns="http://www.w3.org/2000/svg"
 width="880.000000pt" height="880.000000pt" viewBox="0 0 880.000000 880.000000"
 preserveAspectRatio="xMidYMid meet">
<metadata>
Created by potrace 1.16, written by Peter Selinger 2001-2019
</metadata>
<g transform="translate(0.000000,880.000000) scale(0.100000,-0.100000)"
fill="#000000" stroke="none">
<path d="M1850 8772 c-19 -2 -38 -9 -42 -15 -6 -9 -8 -9 -8 1 0 13 -42 17 -54
5 -4 -5 -17 -9 -29 -10 -91 -10 -168 -23 -187 -33 -8 -4 -36 -11 -63 -14 -27
-4 -45 -12 -41 -17 3 -6 -4 -7 -19 -4 -14 4 -28 2 -31 -4 -4 -6 -16 -11 -27
-11 -10 0 -19 -5 -19 -11 0 -5 -4 -7 -10 -4 -5 3 -10 2 -10 -4 0 -6 -6 -8 -12
-6 -7 2 -22 -2 -33 -11 -17 -13 -18 -16 -5 -25 12 -9 12 -10 -3 -5 -10 3 -28
1 -40 -5 -19 -9 -18 -7 3 10 29 24 23 27 -14 8 -14 -8 -22 -18 -18 -22 4 -5
-1 -5 -11 -2 -12 5 -16 3 -11 -5 5 -7 2 -9 -7 -6 -17 6 -95 -37 -92 -50 1 -6
-7 -8 -18 -5 -21 6 -73 -26 -97 -59 -7 -10 -23 -23 -35 -28 -20 -10 -20 -10
-4 3 36 30 15 27 -28 -4 -24 -17 -42 -36 -38 -42 3 -6 1 -7 -6 -3 -14 9 -115
-69 -130 -101 -6 -13 -17 -23 -25 -23 -20 0 -111 -85 -137 -127 -11 -18 -24
-31 -27 -29 -4 2 -13 -2 -20 -10 -7 -8 -10 -14 -5 -14 4 0 -2 -6 -12 -14 -12
-8 -16 -19 -11 -31 5 -15 4 -16 -9 -5 -12 10 -15 10 -15 -1 0 -7 -12 -26 -27
-41 -15 -15 -22 -28 -15 -28 6 0 16 8 21 18 10 16 10 16 11 0 0 -16 -38 -45
-50 -38 -3 1 -9 -7 -15 -19 -5 -11 -13 -21 -17 -21 -5 0 -8 -9 -8 -21 0 -12
-4 -17 -11 -13 -8 4 -8 1 -1 -13 9 -15 8 -20 -3 -20 -8 0 -11 5 -8 10 3 6 1 7
-5 3 -6 -3 -13 -20 -17 -36 -4 -17 -10 -28 -13 -26 -4 2 -8 -8 -9 -22 -1 -15
-9 -43 -18 -62 -15 -33 -15 -29 0 30 6 21 4 20 -14 -8 -12 -18 -18 -38 -15
-44 4 -6 3 -8 -4 -4 -17 10 -19 -27 -3 -54 9 -13 11 -21 4 -17 -8 5 -10 -5 -7
-35 4 -40 3 -41 -6 -13 -6 17 -8 41 -5 55 5 24 5 24 -10 6 -8 -11 -15 -36 -16
-55 -1 -33 -2 -34 -9 -11 -7 23 -8 23 -9 3 -1 -12 -6 -25 -12 -29 -6 -3 -9
-14 -6 -23 2 -9 -2 -22 -10 -29 -7 -7 -13 -23 -13 -37 0 -13 -5 -25 -10 -27
-6 -2 -12 -14 -14 -28 -2 -14 -6 -32 -9 -40 -3 -8 -8 -31 -11 -50 -3 -19 -8
-50 -11 -69 -3 -18 -11 -43 -17 -55 -14 -26 -14 -29 9 -37 14 -6 15 -8 2 -8
-11 -1 -16 -12 -17 -37 -1 -20 -6 -42 -13 -50 -6 -7 -9 -21 -6 -31 3 -13 5
-11 6 6 2 48 26 2 32 -62 l6 -62 1 68 c1 39 -2 67 -8 67 -12 0 -13 37 -1 44 5
4 7 -3 4 -14 -3 -11 -3 -20 1 -20 3 0 42 36 86 80 44 44 84 80 89 80 12 0 71
59 71 71 0 5 18 9 40 9 22 0 40 4 40 9 0 12 59 71 71 71 5 0 27 18 49 40 22
22 44 40 49 40 12 0 71 59 71 71 0 5 18 9 40 9 33 0 47 7 80 40 22 22 44 40
49 40 12 0 71 59 71 71 0 5 18 9 40 9 33 0 47 7 80 40 22 22 40 47 40 55 0 11
11 15 40 15 36 0 40 3 40 25 0 23 4 25 40 25 33 0 47 7 80 40 33 33 47 40 80
40 36 0 40 3 40 25 0 23 4 25 40 25 38 0 40 2 40 30 0 28 2 30 40 30 36 0 40
3 40 25 0 23 4 25 40 25 33 0 40 3 40 20 0 17 7 20 40 20 33 0 40 3 40 20 0
17 7 20 40 20 33 0 40 3 40 20 0 17 7 20 40 20 33 0 40 3 40 20 0 17 7 20 40
20 33 0 40 3 40 20 0 17 7 20 40 20 33 0 40 3 40 20 0 17 7 20 40 20 33 0 40
3 40 20 0 17 7 20 40 20 33 0 40 3 40 20 0 17 7 20 40 20 33 0 40 3 40 20 0
17 7 20 40 20 33 0 40 3 40 20 0 17 7 20 40 20 33 0 40 3 40 20 0 17 7 20 40
20 33 0 40 3 40 20 0 17 7 20 40 20 29 0 40 4 40 15 0 11 11 15 40 15 22 0 40
5 40 10 0 6 18 10 40 10 29 0 40 4 40 15 0 11 11 15 40 15 33 0 40 3 40 20 0
17 7 20 41 20 39 0 41 1 36 26 l-5 26 82 -5 c44 -3 71 -3 59 0 -13 2 -23 9
-23 14 0 5 92 9 226 9 125 -1 229 2 232 5 3 3 -65 5 -151 5 -93 0 -158 4 -162
10 -6 10 -1203 12 -1285 2z m143 -9 c-7 -2 -21 -2 -30 0 -10 3 -4 5 12 5 17 0
24 -2 18 -5z m284 1 c-3 -3 -12 -4 -19 -1 -8 3 -5 6 6 6 11 1 17 -2 13 -5z
m106 -1 c-13 -2 -33 -2 -45 0 -13 2 -3 4 22 4 25 0 35 -2 23 -4z m190 -17 c45
1 62 0 37 -3 -24 -2 -49 -8 -55 -13 -6 -5 -17 -5 -25 0 -9 6 -17 5 -22 -3 -10
-14 -28 9 -27 33 1 13 2 13 5 0 4 -12 21 -15 87 -14z m-666 -2 c-3 -3 -12 -4
-19 -1 -8 3 -5 6 6 6 11 1 17 -2 13 -5z m456 -6 l42 -1 -45 -6 c-25 -3 -99 -4
-165 -1 l-120 5 110 5 c61 3 116 5 123 3 8 -2 32 -4 55 -5z m357 -5 c0 -11 -3
-14 -8 -7 -4 6 -14 14 -22 17 -10 4 -8 6 8 6 15 1 22 -5 22 -16z m138 3 c-7
-8 -14 -10 -16 -5 -5 13 -32 11 -32 -3 0 -6 -3 -9 -6 -5 -12 12 8 27 37 27 25
0 28 -2 17 -14z m118 7 c-7 -7 -87 -5 -95 3 -2 2 20 4 49 4 29 0 50 -3 46 -7z
m-353 -20 c-13 -2 -33 -2 -45 0 -13 2 -3 4 22 4 25 0 35 -2 23 -4z m-1130 -30
c-7 -2 -19 -2 -25 0 -7 3 -2 5 12 5 14 0 19 -2 13 -5z m24 -19 c-3 -3 -12 -4
-19 -1 -8 3 -5 6 6 6 11 1 17 -2 13 -5z m-40 -30 c-3 -3 -12 -4 -19 -1 -8 3
-5 6 6 6 11 1 17 -2 13 -5z m523 -54 c0 -5 -2 -10 -4 -10 -3 0 -8 5 -11 10 -3
6 -1 10 4 10 6 0 11 -4 11 -10z m-745 -10 c3 -6 -1 -7 -9 -4 -18 7 -21 14 -7
14 6 0 13 -4 16 -10z m-42 -7 c-7 -2 -19 -2 -25 0 -7 3 -2 5 12 5 14 0 19 -2
13 -5z m-142 -63 c10 0 19 -4 19 -9 0 -10 -58 3 -69 15 -3 4 2 4 12 1 10 -4
27 -7 38 -7z m-171 -100 c0 -4 -6 -10 -14 -13 -12 -5 -14 2 -7 31 2 7 21 -10
21 -18z m-65 -40 c-3 -5 -13 -10 -21 -10 -8 0 -12 -4 -9 -10 3 -5 0 -10 -7
-10 -10 0 -10 -2 1 -9 10 -7 7 -9 -12 -8 l-26 2 30 28 c29 26 56 37 44 17z
m40 -40 c-3 -5 -12 -10 -18 -10 -7 0 -6 4 3 10 19 12 23 12 15 0z m-238 -119
c1 -11 -7 -27 -18 -37 -10 -9 -19 -12 -19 -7 0 6 7 13 15 17 8 3 15 11 15 17
0 8 -5 7 -17 -2 -15 -11 -14 -10 1 9 23 27 21 26 23 3z m643 -21 c0 -5 -2 -10
-4 -10 -3 0 -8 5 -11 10 -3 6 -1 10 4 10 6 0 11 -4 11 -10z m-740 -96 c0 -8
-19 -13 -24 -6 -3 5 1 9 9 9 8 0 15 -2 15 -3z m-85 -144 c-4 -13 -2 -20 6 -20
7 0 10 -2 7 -5 -3 -3 -12 -3 -21 1 -13 5 -14 9 -4 25 15 25 20 24 12 -1z m425
0 c0 -5 -2 -10 -4 -10 -3 0 -8 5 -11 10 -3 6 -1 10 4 10 6 0 11 -4 11 -10z
m-460 -20 c0 -5 -7 -10 -16 -10 -9 0 -12 -5 -8 -12 5 -7 3 -8 -6 -3 -10 6 -9
11 5 22 22 16 25 16 25 3z m-40 -40 c0 -5 -2 -10 -4 -10 -3 0 -8 5 -11 10 -3
6 -1 10 4 10 6 0 11 -4 11 -10z m577 -47 c-3 -2 -13 -3 -23 -1 -16 3 -16 4 2
22 18 18 19 18 22 2 2 -10 1 -20 -1 -23z m-317 -53 c0 -5 -2 -10 -4 -10 -3 0
-8 5 -11 10 -3 6 -1 10 4 10 6 0 11 -4 11 -10z m160 -20 c0 -5 -4 -10 -10 -10
-5 0 -10 5 -10 10 0 6 5 10 10 10 6 0 10 -4 10 -10z m-491 -17 c0 -5 -4 -17
-9 -28 -8 -18 -9 -17 -9 8 -1 15 4 27 9 27 6 0 10 -3 9 -7z m408 -70 c-3 -2
-13 -3 -23 -1 -16 3 -16 4 2 22 18 18 19 18 22 2 2 -10 1 -20 -1 -23z m-157
-73 c0 -5 -4 -10 -10 -10 -5 0 -10 5 -10 10 0 6 5 10 10 10 6 0 10 -4 10 -10z
m-353 -82 c-3 -7 -5 -2 -5 12 0 14 2 19 5 13 2 -7 2 -19 0 -25z m270 -5 c-3
-2 -13 -3 -23 -1 -16 3 -16 4 2 22 18 18 19 18 22 2 2 -10 1 -20 -1 -23z
m-320 -100 c1 -22 -1 -24 -8 -10 -6 9 -7 22 -4 27 9 14 10 13 12 -17z m-18
-30 c-1 -10 -5 -29 -9 -43 -7 -20 -8 -17 -7 17 1 24 5 43 10 43 4 0 7 -8 6
-17z m101 -23 c0 -5 -4 -10 -10 -10 -5 0 -10 5 -10 10 0 6 5 10 10 10 6 0 10
-4 10 -10z m-84 -35 c1 -14 -2 -22 -7 -19 -11 6 -12 44 -1 44 4 0 8 -11 8 -25z
m-35 -20 c5 4 9 -1 9 -10 0 -9 5 -13 10 -10 6 3 10 1 10 -5 0 -16 -34 -8 -42
10 -4 8 -6 24 -6 35 1 17 1 16 5 -3 2 -12 9 -20 14 -17z m-44 -157 c-3 -8 -6
-5 -6 6 -1 11 2 17 5 13 3 -3 4 -12 1 -19z"/>
<path d="M3163 8773 c9 -2 23 -2 30 0 6 3 -1 5 -18 5 -16 0 -22 -2 -12 -5z"/>
<path d="M3363 8773 c15 -2 39 -2 55 0 15 2 2 4 -28 4 -30 0 -43 -2 -27 -4z"/>
<path d="M3565 8773 c-22 -3 -44 -8 -48 -12 -7 -7 22 -4 148 12 40 5 -47 5
-100 0z"/>
<path d="M3755 8770 c2 -4 -9 -7 -26 -8 -17 0 -33 -3 -35 -5 -3 -2 41 -4 96
-3 55 0 97 2 93 3 -24 8 -131 18 -128 13z"/>
<path d="M3878 8773 c7 -3 16 -2 19 1 4 3 -2 6 -13 5 -11 0 -14 -3 -6 -6z"/>
<path d="M3938 8773 c12 -2 32 -2 45 0 12 2 2 4 -23 4 -25 0 -35 -2 -22 -4z"/>
<path d="M4098 8773 c12 -2 32 -2 45 0 12 2 2 4 -23 4 -25 0 -35 -2 -22 -4z"/>
<path d="M4366 8765 c4 -8 11 -15 16 -15 6 0 5 6 -2 15 -7 8 -14 15 -16 15 -2
0 -1 -7 2 -15z"/>
<path d="M4758 8771 c-26 -4 -50 -10 -54 -14 -4 -4 6 -5 22 -2 16 3 63 10 104
14 60 7 65 8 25 8 -27 0 -71 -3 -97 -6z"/>
<path d="M4952 8770 c18 -11 268 -28 258 -17 -3 3 -57 8 -121 11 -63 3 -124 8
-135 11 -17 6 -17 6 -2 -5z"/>
<path d="M5298 8773 c12 -2 32 -2 45 0 12 2 2 4 -23 4 -25 0 -35 -2 -22 -4z"/>
<path d="M6178 8773 c12 -2 32 -2 45 0 12 2 2 4 -23 4 -25 0 -35 -2 -22 -4z"/>
<path d="M4270 8760 l-55 -7 63 0 c34 0 62 4 62 9 0 4 -3 7 -7 6 -5 -1 -33 -4
-63 -8z"/>
<path d="M4438 8763 c23 -2 42 -7 42 -11 0 -6 56 -7 70 -2 10 5 -87 18 -120
18 -30 -1 -29 -2 8 -5z"/>
<path d="M5618 8763 c12 -2 32 -2 45 0 12 2 2 4 -23 4 -25 0 -35 -2 -22 -4z"/>
<path d="M6608 8763 c7 -3 16 -2 19 1 4 3 -2 6 -13 5 -11 0 -14 -3 -6 -6z"/>
<path d="M6855 8761 c-29 -7 -29 -7 14 -14 24 -4 46 -5 49 -2 3 3 -5 5 -17 5
-12 0 -19 4 -16 10 3 6 5 9 3 9 -2 -1 -16 -4 -33 -8z"/>
<path d="M4073 8753 c26 -2 68 -2 95 0 26 2 4 3 -48 3 -52 0 -74 -1 -47 -3z"/>
<path d="M4583 8753 c15 -2 37 -2 50 0 12 2 0 4 -28 4 -27 0 -38 -2 -22 -4z"/>
<path d="M4668 8753 c7 -3 16 -2 19 1 4 3 -2 6 -13 5 -11 0 -14 -3 -6 -6z"/>
<path d="M5273 8753 c26 -2 67 -2 90 0 23 2 2 3 -48 3 -49 0 -68 -1 -42 -3z"/>
<path d="M5458 8753 c12 -2 32 -2 45 0 12 2 2 4 -23 4 -25 0 -35 -2 -22 -4z"/>
<path d="M5698 8753 c6 -2 18 -2 25 0 6 3 1 5 -13 5 -14 0 -19 -2 -12 -5z"/>
<path d="M3458 8733 c7 -3 16 -2 19 1 4 3 -2 6 -13 5 -11 0 -14 -3 -6 -6z"/>
<path d="M3490 8730 c0 -5 5 -10 11 -10 5 0 7 5 4 10 -3 6 -8 10 -11 10 -2 0
-4 -4 -4 -10z"/>
<path d="M4348 8733 c7 -3 16 -2 19 1 4 3 -2 6 -13 5 -11 0 -14 -3 -6 -6z"/>
<path d="M4551 8731 c-8 -5 5 -7 35 -4 27 3 51 7 53 9 9 8 -75 3 -88 -5z"/>
<path d="M3045 8725 c23 -8 85 -10 85 -3 0 4 -21 8 -47 7 -27 0 -43 -2 -38 -4z"/>
<path d="M3148 8723 c7 -3 16 -2 19 1 4 3 -2 6 -13 5 -11 0 -14 -3 -6 -6z"/>
<path d="M3198 8723 c12 -2 32 -2 45 0 12 2 2 4 -23 4 -25 0 -35 -2 -22 -4z"/>
<path d="M3378 8723 c12 -2 32 -2 45 0 12 2 2 4 -23 4 -25 0 -35 -2 -22 -4z"/>
<path d="M3538 8723 c12 -2 32 -2 45 0 12 2 2 4 -23 4 -25 0 -35 -2 -22 -4z"/>
<path d="M3723 8723 c9 -2 23 -2 30 0 6 3 -1 5 -18 5 -16 0 -22 -2 -12 -5z"/>
<path d="M4508 8723 c7 -3 16 -2 19 1 4 3 -2 6 -13 5 -11 0 -14 -3 -6 -6z"/>
<path d="M4978 8723 c12 -2 32 -2 45 0 12 2 2 4 -23 4 -25 0 -35 -2 -22 -4z"/>
<path d="M7363 8694 c9 -3 15 -10 12 -15 -4 -5 -1 -9 5 -9 19 0 5 25 -16 27
-16 2 -16 1 -1 -3z"/>
<path d="M7437 8659 c7 -7 15 -10 18 -7 3 3 -2 9 -12 12 -14 6 -15 5 -6 -5z"/>
<path d="M7590 8600 c-9 -6 -10 -10 -3 -10 6 0 15 5 18 10 8 12 4 12 -15 0z"/>
<path d="M7650 8576 c0 -2 7 -7 16 -10 8 -3 12 -2 9 4 -6 10 -25 14 -25 6z"/>
<path d="M7790 8490 c-8 -5 -10 -10 -5 -10 6 0 17 5 25 10 8 5 11 10 5 10 -5
0 -17 -5 -25 -10z"/>
<path d="M2528 8473 c6 -2 18 -2 25 0 6 3 1 5 -13 5 -14 0 -19 -2 -12 -5z"/>
<path d="M2480 8445 c0 -8 4 -15 9 -15 5 0 11 7 15 15 3 9 0 15 -9 15 -8 0
-15 -7 -15 -15z"/>
<path d="M7925 8421 c-3 -5 -2 -12 3 -15 5 -3 9 1 9 9 0 17 -3 19 -12 6z"/>
<path d="M8090 8256 c0 -2 7 -7 16 -10 8 -3 12 -2 9 4 -6 10 -25 14 -25 6z"/>
<path d="M8187 8189 c12 -12 24 -21 27 -18 2 2 -8 13 -22 23 l-27 19 22 -24z"/>
<path d="M8330 8030 c5 -10 7 -19 5 -22 -3 -3 2 -5 10 -5 11 0 12 4 4 13 -6 7
-8 17 -5 22 3 5 -1 9 -9 9 -10 0 -11 -5 -5 -17z"/>
<path d="M1520 7985 c0 -13 4 -14 20 -5 11 6 20 13 20 15 0 3 -9 5 -20 5 -11
0 -20 -7 -20 -15z"/>
<path d="M8410 7881 c0 -6 4 -13 10 -16 6 -3 7 1 4 9 -7 18 -14 21 -14 7z"/>
<path d="M8491 7784 c0 -11 3 -14 6 -6 3 7 2 16 -1 19 -3 4 -6 -2 -5 -13z"/>
<path d="M2951 7711 c-23 -15 23 -23 104 -18 l70 3 -85 2 c-59 2 -80 5 -70 12
8 5 11 10 5 10 -5 0 -17 -4 -24 -9z"/>
<path d="M3238 7693 c23 -2 61 -2 85 0 23 2 4 4 -43 4 -47 0 -66 -2 -42 -4z"/>
<path d="M3453 7693 c9 -2 25 -2 35 0 9 3 1 5 -18 5 -19 0 -27 -2 -17 -5z"/>
<path d="M3703 7693 c43 -2 110 -2 150 0 40 1 5 3 -78 3 -82 0 -115 -2 -72 -3z"/>
<path d="M4033 7693 c20 -2 54 -2 75 0 20 2 3 4 -38 4 -41 0 -58 -2 -37 -4z"/>
<path d="M4188 7693 c17 -2 47 -2 65 0 17 2 3 4 -33 4 -36 0 -50 -2 -32 -4z"/>
<path d="M4738 7693 c12 -2 32 -2 45 0 12 2 2 4 -23 4 -25 0 -35 -2 -22 -4z"/>
<path d="M5138 7693 c12 -2 32 -2 45 0 12 2 2 4 -23 4 -25 0 -35 -2 -22 -4z"/>
<path d="M5538 7693 c12 -2 32 -2 45 0 12 2 2 4 -23 4 -25 0 -35 -2 -22 -4z"/>
<path d="M5778 7693 c7 -3 16 -2 19 1 4 3 -2 6 -13 5 -11 0 -14 -3 -6 -6z"/>
<path d="M5833 7693 c9 -2 23 -2 30 0 6 3 -1 5 -18 5 -16 0 -22 -2 -12 -5z"/>
<path d="M2853 7683 c9 -2 23 -2 30 0 6 3 -1 5 -18 5 -16 0 -22 -2 -12 -5z"/>
<path d="M8575 7679 c-4 -6 -5 -12 -2 -15 2 -3 7 2 10 11 7 17 1 20 -8 4z"/>
<path d="M1040 7670 c0 -5 5 -10 10 -10 6 0 10 5 10 10 0 6 -4 10 -10 10 -5 0
-10 -4 -10 -10z"/>
<path d="M2555 7670 c-4 -6 3 -10 14 -10 25 0 27 6 6 13 -8 4 -17 2 -20 -3z"/>
<path d="M2723 7673 c15 -2 39 -2 55 0 15 2 2 4 -28 4 -30 0 -43 -2 -27 -4z"/>
<path d="M6178 7663 c7 -3 16 -2 19 1 4 3 -2 6 -13 5 -11 0 -14 -3 -6 -6z"/>
<path d="M2643 7653 c9 -2 23 -2 30 0 6 3 -1 5 -18 5 -16 0 -22 -2 -12 -5z"/>
<path d="M880 7575 c0 -30 16 -33 25 -6 3 12 17 22 33 24 18 3 13 4 -15 6 -40
1 -43 -1 -43 -24z"/>
<path d="M2250 7593 c8 -3 19 -11 23 -17 6 -7 7 -6 4 4 -2 8 -12 16 -23 17
-13 2 -15 1 -4 -4z"/>
<path d="M2387 7589 c7 -7 15 -10 18 -7 3 3 -2 9 -12 12 -14 6 -15 5 -6 -5z"/>
<path d="M8610 7591 c0 -6 4 -13 10 -16 6 -3 7 1 4 9 -7 18 -14 21 -14 7z"/>
<path d="M2341 7581 c-8 -5 -21 -7 -30 -3 -9 3 -13 2 -9 -2 12 -14 55 -13 55
1 0 7 -1 13 -1 13 -1 0 -7 -4 -15 -9z"/>
<path d="M2250 7560 c8 -5 20 -10 25 -10 6 0 3 5 -5 10 -8 5 -19 10 -25 10 -5
0 -3 -5 5 -10z"/>
<path d="M2198 7513 c-10 -2 -18 -9 -18 -14 0 -6 10 -5 23 2 37 20 36 23 -5
12z"/>
<path d="M2115 7500 c-3 -6 1 -7 9 -4 18 7 21 14 7 14 -6 0 -13 -4 -16 -10z"/>
<path d="M2086 7462 c-2 -4 4 -8 14 -8 10 0 16 4 14 8 -3 4 -9 8 -14 8 -5 0
-11 -4 -14 -8z"/>
<path d="M640 7420 c0 -22 25 -18 34 6 3 9 -1 14 -14 14 -13 0 -20 -7 -20 -20z"/>
<path d="M2050 7430 c-9 -6 -10 -10 -3 -10 6 0 15 5 18 10 8 12 4 12 -15 0z"/>
<path d="M2001 7411 c-7 -5 -9 -11 -5 -14 5 -3 15 1 22 9 14 16 5 18 -17 5z"/>
<path d="M1935 7389 c-4 -6 -5 -12 -2 -15 2 -3 7 2 10 11 7 17 1 20 -8 4z"/>
<path d="M1965 7380 c-3 -5 -1 -10 4 -10 6 0 11 5 11 10 0 6 -2 10 -4 10 -3 0
-8 -4 -11 -10z"/>
<path d="M560 7350 c0 -5 4 -10 9 -10 6 0 13 5 16 10 3 6 -1 10 -9 10 -9 0
-16 -4 -16 -10z"/>
<path d="M1843 7347 c-6 -10 15 -27 32 -27 6 0 4 4 -3 9 -11 7 -10 10 3 15 22
8 41 -4 24 -15 -10 -6 -10 -9 -2 -9 18 0 25 18 11 27 -18 11 -58 11 -65 0z"/>
<path d="M1846 7301 c-4 -5 -2 -12 3 -15 5 -4 12 -2 15 3 4 5 2 12 -3 15 -5 4
-12 2 -15 -3z"/>
<path d="M1781 7261 c-7 -5 -11 -13 -7 -19 3 -6 1 -13 -4 -15 -6 -3 -5 -4 2
-3 7 2 13 7 13 12 0 5 4 15 8 22 10 14 7 15 -12 3z"/>
<path d="M320 7180 c0 -22 25 -18 34 6 3 9 -1 14 -14 14 -13 0 -20 -7 -20 -20z"/>
<path d="M1687 7193 c-12 -12 -7 -30 8 -30 10 0 12 4 5 12 -5 7 -7 15 -3 18 3
4 4 7 1 7 -2 0 -8 -3 -11 -7z"/>
<path d="M7140 7125 c13 -14 26 -25 28 -25 3 0 -5 11 -18 25 -13 14 -26 25
-28 25 -3 0 5 -11 18 -25z"/>
<path d="M1604 7109 c-3 -6 1 -17 10 -25 9 -8 11 -9 6 -2 -16 20 -11 31 8 17
15 -13 16 -12 3 4 -16 20 -18 20 -27 6z"/>
<path d="M7186 7093 c-6 -14 -5 -15 5 -6 7 7 10 15 7 18 -3 3 -9 -2 -12 -12z"/>
<path d="M2898 7043 c7 -3 16 -2 19 1 4 3 -2 6 -13 5 -11 0 -14 -3 -6 -6z"/>
<path d="M1526 7031 c-4 -5 -2 -20 3 -33 l10 -23 0 23 c1 16 5 21 14 16 8 -5
8 -2 -2 9 -16 20 -18 20 -25 8z"/>
<path d="M2828 7033 c7 -3 16 -2 19 1 4 3 -2 6 -13 5 -11 0 -14 -3 -6 -6z"/>
<path d="M28 6943 c-2 -10 -1 -38 3 -63 6 -43 6 -43 7 18 2 61 -2 79 -10 45z"/>
<path d="M1443 6947 c-3 -6 -1 -7 5 -3 6 3 15 -2 21 -11 9 -16 10 -16 8 3 -1
21 -23 28 -34 11z"/>
<path d="M1446 6913 c-4 -9 -4 -14 0 -10 4 4 14 1 23 -6 14 -11 15 -10 1 8 -8
11 -15 21 -16 23 -1 2 -5 -5 -8 -15z"/>
<path d="M1380 6851 c0 -5 5 -13 10 -16 6 -3 10 -2 10 4 0 5 -4 13 -10 16 -5
3 -10 2 -10 -4z"/>
<path d="M1366 6825 c4 -8 11 -15 16 -15 6 0 5 6 -2 15 -7 8 -14 15 -16 15 -2
0 -1 -7 2 -15z"/>
<path d="M33 6760 c0 -25 2 -35 4 -22 2 12 2 32 0 45 -2 12 -4 2 -4 -23z"/>
<path d="M2244 6779 c-19 -22 -19 -22 4 -8 12 8 22 17 22 21 0 12 -6 9 -26
-13z"/>
<path d="M1375 6770 c3 -5 8 -10 11 -10 2 0 4 5 4 10 0 6 -5 10 -11 10 -5 0
-7 -4 -4 -10z"/>
<path d="M71 6704 c0 -11 3 -14 6 -6 3 7 2 16 -1 19 -3 4 -6 -2 -5 -13z"/>
<path d="M1320 6716 c0 -2 8 -10 18 -17 15 -13 16 -12 3 4 -13 16 -21 21 -21
13z"/>
<path d="M6649 6653 c-13 -16 -12 -17 4 -4 9 7 17 15 17 17 0 8 -8 3 -21 -13z"/>
<path d="M60 6650 c0 -5 5 -10 11 -10 5 0 7 5 4 10 -3 6 -8 10 -11 10 -2 0 -4
-4 -4 -10z"/>
<path d="M2010 6545 c-7 -9 -8 -15 -2 -15 5 0 12 7 16 15 3 8 4 15 2 15 -2 0
-9 -7 -16 -15z"/>
<path d="M30 6455 c0 -19 2 -35 4 -35 2 0 6 16 8 35 2 19 0 35 -4 35 -4 0 -8
-16 -8 -35z"/>
<path d="M1936 6444 c-5 -14 -4 -15 9 -4 17 14 19 20 6 20 -5 0 -12 -7 -15
-16z"/>
<path d="M1165 6319 c-4 -6 -5 -12 -2 -15 2 -3 7 2 10 11 7 17 1 20 -8 4z"/>
<path d="M1121 6274 c0 -11 3 -14 6 -6 3 7 2 16 -1 19 -3 4 -6 -2 -5 -13z"/>
<path d="M1145 6239 c-4 -6 -5 -12 -2 -15 2 -3 7 2 10 11 7 17 1 20 -8 4z"/>
<path d="M5712 6215 c0 -16 2 -22 5 -12 2 9 2 23 0 30 -3 6 -5 -1 -5 -18z"/>
<path d="M1131 6184 c0 -11 3 -14 6 -6 3 7 2 16 -1 19 -3 4 -6 -2 -5 -13z"/>
<path d="M1141 6144 c0 -11 3 -14 6 -6 3 7 2 16 -1 19 -3 4 -6 -2 -5 -13z"/>
<path d="M1131 6094 c0 -11 3 -14 6 -6 3 7 2 16 -1 19 -3 4 -6 -2 -5 -13z"/>
<path d="M4077 6069 c7 -7 15 -10 18 -7 3 3 -2 9 -12 12 -14 6 -15 5 -6 -5z"/>
<path d="M4807 6069 c7 -7 15 -10 18 -7 3 3 -2 9 -12 12 -14 6 -15 5 -6 -5z"/>
<path d="M4732 6064 c4 -3 23 -10 43 -14 21 -5 34 -5 29 -1 -10 10 -80 24 -72
15z"/>
<path d="M3928 6053 c7 -3 16 -2 19 1 4 3 -2 6 -13 5 -11 0 -14 -3 -6 -6z"/>
<path d="M4028 6053 c7 -3 16 -2 19 1 4 3 -2 6 -13 5 -11 0 -14 -3 -6 -6z"/>
<path d="M4858 6053 c7 -3 16 -2 19 1 4 3 -2 6 -13 5 -11 0 -14 -3 -6 -6z"/>
<path d="M5050 5986 c0 -3 9 -10 20 -16 11 -6 20 -8 20 -6 0 3 -9 10 -20 16
-11 6 -20 8 -20 6z"/>
<path d="M3683 5967 c4 -10 2 -17 -5 -17 -6 0 -9 -3 -5 -6 3 -3 12 -2 20 3 13
7 13 10 -1 23 -14 13 -15 12 -9 -3z"/>
<path d="M1112 5940 c0 -14 2 -19 5 -12 2 6 2 18 0 25 -3 6 -5 1 -5 -13z"/>
<path d="M7691 5934 c0 -11 3 -14 6 -6 3 7 2 16 -1 19 -3 4 -6 -2 -5 -13z"/>
<path d="M5767 5905 c3 -8 9 -12 14 -9 12 7 11 11 -5 17 -10 4 -13 1 -9 -8z"/>
<path d="M5262 5901 c-11 -7 -11 -9 0 -14 9 -3 15 1 15 9 0 8 -1 14 -1 14 -1
0 -7 -4 -14 -9z"/>
<path d="M5785 5879 c-11 -16 -1 -19 13 -3 7 8 8 14 3 14 -5 0 -13 -5 -16 -11z"/>
<path d="M1103 5825 c0 -33 2 -45 4 -27 2 18 2 45 0 60 -2 15 -4 0 -4 -33z"/>
<path d="M5872 5834 c10 -10 20 -16 22 -13 3 3 -5 11 -17 18 -21 13 -21 12 -5
-5z"/>
<path d="M5843 5792 c1 -12 6 -18 15 -15 7 3 10 9 5 12 -4 3 -11 10 -15 15 -4
4 -6 -1 -5 -12z"/>
<path d="M5920 5803 c5 -2 8 -9 5 -13 -9 -15 35 -34 49 -20 8 8 6 9 -8 4 -13
-5 -17 -4 -12 4 5 8 2 10 -9 6 -10 -4 -15 -2 -13 6 2 7 -3 14 -10 16 -7 1 -8
0 -2 -3z"/>
<path d="M6347 5794 c-26 -14 -29 -35 -4 -33 7 0 6 3 -2 6 -10 4 -3 12 20 24
19 10 30 18 24 18 -5 0 -23 -7 -38 -15z"/>
<path d="M5880 5796 c0 -2 7 -7 16 -10 8 -3 12 -2 9 4 -6 10 -25 14 -25 6z"/>
<path d="M31 5774 c0 -11 3 -14 6 -6 3 7 2 16 -1 19 -3 4 -6 -2 -5 -13z"/>
<path d="M3399 5773 c-13 -16 -12 -17 4 -4 9 7 17 15 17 17 0 8 -8 3 -21 -13z"/>
<path d="M5380 5786 c0 -2 8 -10 18 -17 15 -13 16 -12 3 4 -13 16 -21 21 -21
13z"/>
<path d="M3283 5735 c2 -20 8 -30 20 -31 12 -2 13 -1 2 3 -20 6 -19 11 8 34
12 10 17 18 10 19 -6 0 -14 -6 -16 -12 -4 -10 -8 -9 -16 2 -8 11 -10 8 -8 -15z"/>
<path d="M5475 5751 c4 -8 -2 -10 -19 -7 -15 3 -24 1 -21 -5 4 -5 11 -7 16 -4
5 4 9 1 9 -6 0 -10 3 -10 12 -1 16 16 31 15 22 0 -5 -9 -2 -9 9 1 9 7 17 19
16 25 0 7 -2 6 -6 -1 -3 -10 -10 -10 -25 -2 -15 8 -19 8 -13 0z"/>
<path d="M3346 5738 c3 -5 10 -6 15 -3 13 9 11 12 -6 12 -8 0 -12 -4 -9 -9z"/>
<path d="M6048 5743 c7 -3 16 -2 19 1 4 3 -2 6 -13 5 -11 0 -14 -3 -6 -6z"/>
<path d="M6098 5723 c6 -2 18 -2 25 0 6 3 1 5 -13 5 -14 0 -19 -2 -12 -5z"/>
<path d="M5496 5701 c-3 -4 3 -16 14 -26 11 -10 20 -14 20 -9 0 5 5 2 11 -6 7
-10 9 -11 7 -2 -2 8 -8 14 -13 14 -6 0 -16 5 -23 10 -11 9 -11 13 0 19 9 6 9
9 1 9 -6 0 -14 -4 -17 -9z"/>
<path d="M25 5670 c3 -5 8 -10 11 -10 2 0 4 5 4 10 0 6 -5 10 -11 10 -5 0 -7
-4 -4 -10z"/>
<path d="M1105 5065 c0 -341 1 -482 2 -313 2 169 2 448 0 620 -1 172 -2 34 -2
-307z"/>
<path d="M3212 5676 c4 -5 3 -15 -4 -23 -8 -10 -8 -17 1 -26 10 -9 11 -8 5 7
-5 13 -4 17 4 12 18 -11 23 11 4 25 -9 7 -14 9 -10 5z"/>
<path d="M5573 5662 c0 -10 6 -19 13 -19 15 0 11 30 -4 35 -6 2 -10 -5 -9 -16z"/>
<path d="M61 5644 c0 -11 3 -14 6 -6 3 7 2 16 -1 19 -3 4 -6 -2 -5 -13z"/>
<path d="M33 5560 c0 -25 2 -35 4 -22 2 12 2 32 0 45 -2 12 -4 2 -4 -23z"/>
<path d="M3134 5589 c-4 -7 -8 -26 -8 -43 -1 -29 -4 -31 -38 -31 -45 0 -51 -6
-39 -36 7 -18 10 -20 10 -6 1 10 6 15 11 12 6 -4 7 -12 4 -18 -4 -7 9 3 29 22
20 19 34 38 31 43 -3 4 -1 8 5 8 5 0 8 8 6 18 -1 9 2 23 8 30 6 8 6 12 -1 12
-6 0 -14 -5 -18 -11z m-44 -94 c0 -8 -2 -15 -4 -15 -2 0 -6 7 -10 15 -3 8 -1
15 4 15 6 0 10 -7 10 -15z"/>
<path d="M3175 5589 c-4 -6 -5 -12 -2 -15 2 -3 7 2 10 11 7 17 1 20 -8 4z"/>
<path d="M5621 5583 c7 -12 15 -20 18 -17 3 2 -3 12 -13 22 -17 16 -18 16 -5
-5z"/>
<path d="M5651 5594 c-1 -6 5 -17 12 -23 10 -8 14 -7 14 4 0 8 -4 12 -8 9 -4
-2 -10 2 -12 8 -4 8 -6 9 -6 2z"/>
<path d="M5667 5520 c7 -8 20 -15 29 -16 9 -1 13 1 9 4 -4 4 -10 7 -13 7 -4 0
-14 4 -22 9 -12 7 -13 6 -3 -4z"/>
<path d="M5727 5509 c7 -7 15 -10 18 -7 3 3 -2 9 -12 12 -14 6 -15 5 -6 -5z"/>
<path d="M4315 5480 c3 -5 -13 -9 -37 -9 -77 -1 -98 -3 -93 -11 3 -5 36 -6 73
-3 37 3 64 3 61 -1 -3 -3 -39 -7 -80 -9 -62 -3 -75 -7 -77 -21 -3 -16 -12 -18
-55 -14 -29 3 -46 3 -39 1 26 -10 11 -24 -20 -19 l-33 5 33 -11 c46 -16 40
-23 -22 -25 -51 -1 -54 0 -43 17 6 11 21 21 34 25 13 3 23 10 23 15 0 15 -11
12 -51 -16 -20 -14 -46 -26 -58 -27 -11 -1 -24 -9 -27 -19 -7 -23 -41 -41 -65
-35 -12 3 -17 1 -12 -6 4 -6 0 -8 -10 -4 -9 3 -21 -1 -29 -11 -12 -16 -11 -16
6 -2 18 13 19 13 14 0 -4 -11 0 -16 12 -16 10 0 18 5 17 10 -1 5 7 11 18 13
28 5 65 25 61 32 -2 3 16 4 40 2 24 -1 44 -7 44 -12 0 -16 75 -9 115 11 22 11
47 20 56 20 10 0 20 9 24 19 3 10 20 24 38 31 18 6 47 18 65 26 18 8 37 12 42
9 5 -3 12 -1 15 5 4 6 15 8 26 5 25 -8 46 4 28 16 -10 6 -6 9 13 9 29 0 46
-15 26 -23 -7 -2 -10 -7 -7 -11 9 -9 40 4 34 14 -3 5 3 13 12 19 13 8 -8 10
-80 11 -60 0 -96 -4 -92 -10z m68 -7 c-7 -2 -19 -2 -25 0 -7 3 -2 5 12 5 14 0
19 -2 13 -5z"/>
<path d="M5715 5481 c-3 -5 -2 -12 3 -15 5 -3 9 1 9 9 0 17 -3 19 -12 6z"/>
<path d="M4500 5470 c-21 -7 -22 -8 -5 -10 15 -1 9 -7 -20 -21 -31 -14 -35
-19 -17 -19 12 0 22 -4 22 -9 0 -12 -103 -21 -114 -10 -13 12 -46 12 -46 0 0
-5 -18 -11 -40 -15 -43 -7 -55 -26 -17 -26 13 0 28 -5 35 -12 16 -16 91 -11
108 7 8 7 28 16 46 20 51 10 108 37 108 51 0 7 10 16 22 20 l21 6 -24 14 c-27
15 -42 16 -79 4z m69 -9 c11 -7 9 -10 -8 -16 -22 -7 -41 0 -41 16 0 11 30 12
49 0z"/>
<path d="M4626 5455 c-20 -15 -20 -15 0 -15 12 0 21 7 21 15 0 8 -1 15 -1 15
-1 0 -10 -7 -20 -15z"/>
<path d="M4098 5448 c-17 -4 -12 -6 19 -7 23 -1 44 3 47 8 6 10 -30 10 -66 -1z"/>
<path d="M4665 5450 c3 -5 18 -10 32 -10 32 0 28 5 -10 14 -19 4 -26 3 -22 -4z"/>
<path d="M28 5390 c-1 -28 0 -50 5 -50 4 0 7 23 7 50 0 65 -7 65 -12 0z"/>
<path d="M2960 5436 c0 -2 7 -7 16 -10 8 -3 12 -2 9 4 -6 10 -25 14 -25 6z"/>
<path d="M4740 5430 c9 -6 -5 -7 -43 -3 -53 5 -57 4 -57 -16 0 -18 -6 -21 -40
-21 -22 0 -40 -4 -40 -9 0 -12 151 -25 159 -13 3 5 20 14 36 21 l30 11 -30 -5
c-22 -4 -26 -3 -15 5 22 14 46 12 64 -6 9 -8 21 -12 28 -8 9 5 9 2 -1 -9 -12
-15 -15 -15 -25 -3 -8 10 -17 11 -31 5 -19 -9 -18 -9 3 -5 16 3 22 -1 22 -14
0 -15 9 -19 43 -22 30 -2 42 -7 41 -18 -1 -11 12 -15 52 -16 29 0 60 -6 69
-14 8 -7 18 -11 20 -8 16 16 -137 93 -163 83 -12 -4 -13 -3 -3 9 10 12 8 16
-11 21 -13 4 -42 15 -65 26 -45 20 -68 25 -43 9z m195 -97 c18 -14 18 -15 2
-9 -10 3 -23 6 -28 6 -5 0 -9 5 -9 10 0 14 12 12 35 -7z"/>
<path d="M5802 5423 c8 -10 20 -26 25 -36 8 -16 10 -13 10 13 0 20 -3 26 -9
18 -5 -8 -8 -9 -8 -2 0 7 -8 15 -17 18 -15 6 -16 5 -1 -11z"/>
<path d="M3009 5417 c8 -9 10 -21 6 -25 -4 -4 -10 -1 -12 6 -3 6 -9 9 -15 6
-6 -4 -14 0 -19 7 -5 8 -9 10 -9 4 0 -12 20 -43 20 -31 0 5 6 3 14 -3 10 -9
16 -8 26 4 11 13 10 19 -5 33 -18 16 -18 16 -6 -1z"/>
<path d="M5800 5391 c0 -7 -5 -9 -12 -5 -7 5 -8 3 -3 -5 5 -9 10 -10 18 -2 6
6 8 14 4 18 -4 3 -7 1 -7 -6z"/>
<path d="M4008 5378 c5 -5 16 -8 23 -6 8 3 3 7 -10 11 -17 4 -21 3 -13 -5z"/>
<path d="M2975 5362 c-10 -7 -18 -32 -10 -32 2 0 9 9 15 20 12 22 11 24 -5 12z"/>
<path d="M5811 5365 c1 -19 18 -51 18 -35 0 8 -4 22 -9 30 -5 8 -9 11 -9 5z"/>
<path d="M3856 5344 c-11 -8 -16 -14 -10 -14 13 0 39 18 34 24 -3 2 -14 -2
-24 -10z"/>
<path d="M55 5340 c-8 -13 4 -50 16 -50 5 0 9 5 9 10 0 6 -4 10 -9 10 -5 0 -7
9 -4 20 6 21 -2 27 -12 10z"/>
<path d="M1840 5319 c0 -5 5 -7 10 -4 6 3 10 8 10 11 0 2 -4 4 -10 4 -5 0 -10
-5 -10 -11z"/>
<path d="M2248 5303 c7 -3 16 -2 19 1 4 3 -2 6 -13 5 -11 0 -14 -3 -6 -6z"/>
<path d="M4240 5295 c0 -8 7 -15 16 -15 14 0 14 3 4 15 -7 8 -14 15 -16 15 -2
0 -4 -7 -4 -15z"/>
<path d="M3860 5290 c-13 -9 -13 -10 0 -10 8 0 22 5 30 10 13 9 13 10 0 10 -8
0 -22 -5 -30 -10z"/>
<path d="M4925 5290 c4 -6 11 -8 16 -5 14 9 11 15 -7 15 -8 0 -12 -5 -9 -10z"/>
<path d="M33 5245 c0 -27 2 -38 4 -22 2 15 2 37 0 50 -2 12 -4 0 -4 -28z"/>
<path d="M63 5240 c0 -25 2 -35 4 -22 2 12 2 32 0 45 -2 12 -4 2 -4 -23z"/>
<path d="M2884 5269 c-3 -6 -3 -13 0 -16 3 -4 6 -1 6 7 0 10 3 10 15 0 9 -7
15 -8 15 -2 0 14 -28 23 -36 11z"/>
<path d="M4323 5273 c-97 -2 -163 -7 -163 -13 0 -6 -18 -10 -40 -10 -22 0 -40
5 -40 10 0 6 -33 10 -80 10 -47 0 -80 -4 -80 -10 0 -5 -18 -10 -40 -10 -22 0
-40 -5 -40 -11 0 -6 -17 -9 -42 -7 -26 2 -43 8 -43 16 0 6 -4 12 -10 13 -11 1
-65 -33 -65 -41 0 -10 39 -9 45 1 4 5 1 9 -5 9 -6 0 -8 5 -5 10 10 16 23 12
36 -11 8 -16 8 -20 0 -14 -7 4 -18 1 -26 -5 -8 -7 -26 -10 -39 -8 -18 4 -23 1
-18 -10 3 -10 1 -13 -6 -8 -6 4 -29 -9 -51 -29 -29 -26 -38 -41 -34 -56 3 -11
9 -17 12 -12 3 4 26 5 51 2 l45 -6 -47 -1 c-38 -2 -48 -6 -48 -19 0 -15 -2
-14 -14 2 -8 11 -12 24 -8 30 3 5 -4 1 -16 -9 -24 -21 -31 -36 -8 -17 11 9 15
8 20 -4 3 -9 2 -13 -3 -10 -5 3 -12 2 -15 -3 -3 -5 0 -9 7 -10 71 -6 127 -16
127 -23 0 -5 18 -9 40 -9 22 0 40 -4 40 -10 0 -6 -35 -11 -82 -12 -46 -1 -64
-3 -40 -5 23 -2 42 -8 42 -14 0 -5 18 -9 40 -9 22 0 40 -4 40 -9 0 -6 19 -12
43 -14 23 -2 5 -4 -40 -5 -48 -1 -83 -6 -83 -12 0 -5 18 -10 40 -10 22 0 40
-4 40 -9 0 -5 36 -12 80 -16 44 -4 80 -11 80 -15 0 -4 36 -11 80 -15 44 -4 80
-11 80 -16 0 -5 18 -9 40 -9 22 0 40 -4 40 -10 0 -5 18 -10 40 -10 28 0 40 -4
40 -14 0 -10 22 -16 80 -21 77 -7 80 -8 80 -32 0 -19 4 -24 16 -19 29 11 144
-5 144 -20 0 -10 13 -14 40 -14 22 0 40 -4 40 -10 0 -5 18 -10 40 -10 29 0 40
-4 40 -15 0 -11 11 -15 40 -15 29 0 40 -4 40 -15 0 -11 11 -15 36 -15 19 0 42
-6 49 -12 35 -32 45 -38 60 -38 8 0 15 -6 15 -14 0 -9 -16 -15 -47 -19 -38 -3
-52 0 -65 14 -9 11 -23 19 -32 19 -9 0 -16 7 -16 15 0 11 -11 15 -40 15 -22 0
-40 5 -40 10 0 6 -18 10 -40 10 -22 0 -40 5 -40 10 0 6 -18 10 -40 10 -32 0
-45 6 -70 34 -28 31 -34 33 -80 28 -33 -3 -50 -1 -50 7 0 6 -17 11 -40 11 -28
0 -40 4 -40 14 0 10 -22 16 -80 21 -44 4 -80 11 -80 16 0 5 -18 9 -40 9 -22 0
-40 5 -40 10 0 6 -18 10 -40 10 -28 0 -40 4 -40 14 0 10 -22 16 -80 21 -44 4
-80 11 -80 16 0 5 -36 9 -80 9 -64 0 -80 -3 -80 -15 0 -12 -16 -15 -80 -15
-47 0 -80 -4 -80 -10 0 -5 -18 -10 -40 -10 -34 0 -41 -4 -46 -25 -3 -13 -4
-30 -1 -37 4 -8 6 -7 6 5 1 13 10 17 41 17 33 0 40 -3 40 -20 0 -18 7 -20 80
-20 47 0 80 -4 80 -10 0 -5 18 -10 40 -10 22 0 40 -4 40 -10 0 -6 33 -10 80
-10 73 0 80 -2 80 -19 0 -16 -8 -21 -37 -23 -21 -2 15 -2 80 1 101 3 117 2
117 -11 0 -13 17 -17 80 -23 69 -6 80 -10 80 -26 0 -15 7 -19 40 -19 36 0 40
-3 40 -24 0 -16 7 -27 20 -31 11 -3 20 -11 20 -16 0 -5 7 -9 15 -9 23 0 18 12
-17 43 l-33 29 32 -16 c18 -9 52 -16 78 -16 38 0 45 -3 45 -20 0 -17 -7 -20
-40 -20 -22 0 -40 -4 -40 -10 0 -5 13 -10 29 -10 16 0 44 -3 62 -6 32 -6 33
-6 14 9 -19 16 -19 16 18 17 30 0 37 -4 37 -19 0 -10 9 -21 20 -24 23 -6 27 8
5 17 -18 7 -20 26 -2 26 6 0 23 -9 37 -20 14 -11 41 -20 63 -20 30 0 37 -4 37
-20 0 -15 -7 -20 -25 -20 -14 0 -25 -4 -25 -9 0 -12 26 -21 63 -21 29 0 30 1
11 15 -18 13 -17 14 19 15 30 0 37 -4 37 -19 0 -10 9 -21 20 -24 23 -6 27 8 5
17 -18 7 -20 26 -2 26 6 0 23 -9 37 -20 14 -11 41 -20 63 -20 30 0 37 -4 37
-20 0 -16 7 -20 38 -20 20 0 56 -10 80 -22 36 -20 42 -27 42 -55 0 -27 4 -33
22 -33 21 0 21 0 2 15 -18 13 -17 14 18 15 21 0 52 -9 70 -20 21 -12 51 -20
81 -20 46 0 47 -1 47 -30 0 -29 -15 -41 -22 -19 -2 6 -12 10 -22 8 -16 -4 -15
-7 9 -33 20 -22 29 -26 35 -16 4 7 15 10 24 7 21 -8 20 3 -1 19 -30 21 -5 28
32 8 27 -14 33 -23 29 -38 -4 -12 -2 -16 5 -12 6 4 11 17 11 29 1 12 1 34 1
49 1 16 5 26 9 23 4 -2 8 6 8 20 0 14 -4 23 -7 20 -4 -2 -7 7 -6 21 0 14 6 29
14 33 11 7 13 36 9 150 -3 83 -10 146 -16 154 -7 8 -9 17 -5 20 3 4 0 14 -8
24 -9 11 -10 14 -1 9 15 -9 15 -11 -2 44 -19 62 -37 100 -49 100 -5 0 -7 6 -4
14 6 16 -14 66 -26 66 -5 0 -5 5 -2 10 3 6 1 10 -4 10 -6 0 -11 6 -11 13 0 7
-7 22 -15 33 -13 18 -14 18 -8 -5 5 -18 3 -22 -6 -16 -7 4 -11 18 -8 31 2 13
0 24 -4 24 -5 0 -9 6 -9 14 0 8 -11 28 -25 44 -14 17 -25 35 -25 40 0 6 -9 17
-20 25 -11 8 -17 17 -12 22 4 5 2 5 -4 2 -6 -4 -20 1 -30 9 -19 15 -19 15 1 9
15 -4 12 2 -11 22 -17 15 -40 34 -50 41 -11 7 -12 10 -4 6 12 -6 13 -5 2 7
-11 12 -14 12 -22 -1 -8 -13 -13 -13 -30 -2 -11 7 -25 10 -29 7 -5 -2 -8 3 -7
13 1 13 -8 18 -41 20 -24 2 -43 7 -43 11 0 16 -123 21 -218 9 -74 -9 -97 -9
-100 0 -2 8 -28 11 -80 10 -42 -1 -150 -4 -239 -5z m-120 -40 c-24 -2 -62 -2
-85 0 -24 2 -5 4 42 4 47 0 66 -2 43 -4z m260 0 c-13 -2 -33 -2 -45 0 -13 2
-3 4 22 4 25 0 35 -2 23 -4z m320 0 c-13 -2 -33 -2 -45 0 -13 2 -3 4 22 4 25
0 35 -2 23 -4z m-1103 -60 c0 -13 -22 -42 -35 -47 -9 -3 -13 -2 -10 4 9 14 -9
12 -23 -2 -7 -7 -12 -9 -12 -5 0 12 52 54 67 54 7 0 13 -2 13 -4z m1491 -31
c-6 -2 -8 -9 -4 -15 4 -7 -4 -5 -17 4 -23 15 -44 49 -21 35 6 -4 11 -2 11 5 0
7 8 5 21 -7 11 -10 16 -20 10 -22z m-1331 8 c0 -5 18 -10 40 -10 22 0 40 -4
40 -9 0 -6 17 -12 38 -14 20 -2 10 -3 -22 -1 -32 2 -103 4 -157 4 -92 0 -99 1
-99 20 0 18 7 20 80 20 47 0 80 -4 80 -10z m1396 -77 c-3 11 -2 16 4 12 6 -3
10 -16 10 -27 0 -21 0 -21 -25 2 -14 13 -25 28 -25 34 0 6 10 0 21 -14 15 -17
19 -19 15 -7z m-1413 -20 c-13 -2 -33 -2 -45 0 -13 2 -3 4 22 4 25 0 35 -2 23
-4z m370 -40 c-7 -2 -19 -2 -25 0 -7 3 -2 5 12 5 14 0 19 -2 13 -5z m1101 -34
c-2 -4 0 -10 6 -14 5 -3 10 -16 10 -28 -1 -18 -2 -19 -10 -6 -13 22 -23 89
-11 69 5 -8 8 -17 5 -21z m56 -89 c0 -5 -4 -10 -10 -10 -5 0 -10 5 -10 10 0 6
5 10 10 10 6 0 10 -4 10 -10z m39 -60 c11 -24 11 -24 -3 -6 -9 11 -16 24 -16
30 0 12 5 7 19 -24z m-9 -25 c14 -19 14 -19 -2 -6 -10 7 -18 18 -18 24 0 6 1
8 3 6 1 -2 9 -13 17 -24z m-1540 -15 c0 -5 18 -10 40 -10 22 0 40 -4 40 -10 0
-5 18 -10 40 -10 33 0 40 -3 40 -20 0 -18 7 -20 80 -20 47 0 80 -4 80 -10 0
-5 18 -10 40 -10 22 0 40 -4 40 -10 0 -5 18 -10 40 -10 33 0 40 -3 40 -20 0
-17 7 -20 40 -20 22 0 40 -4 40 -9 0 -5 36 -12 80 -16 58 -5 80 -11 80 -21 0
-10 12 -14 40 -14 33 0 40 -3 40 -20 0 -17 7 -20 40 -20 22 0 40 -4 40 -10 0
-5 18 -10 40 -10 29 0 40 -4 40 -15 0 -11 -11 -15 -40 -15 -22 0 -40 5 -40 10
0 6 -18 10 -40 10 -22 0 -40 5 -40 10 0 6 -18 10 -40 10 -33 0 -40 3 -40 20 0
17 -7 20 -40 20 -22 0 -40 4 -40 9 0 5 -36 12 -80 16 -44 4 -80 11 -80 16 0 5
-18 9 -40 9 -29 0 -40 4 -40 15 0 11 -11 15 -40 15 -22 0 -40 5 -40 10 0 6
-18 10 -40 10 -22 0 -40 5 -40 10 0 6 -18 10 -40 10 -28 0 -40 4 -40 14 0 10
-22 16 -80 21 -44 4 -80 11 -80 15 0 4 -36 11 -80 15 -69 6 -80 10 -80 26 0
17 8 19 80 19 47 0 80 -4 80 -10z m1569 -50 c0 -10 -3 -8 -9 5 -8 19 -9 19 -9
1 -1 -11 -4 -17 -7 -13 -3 3 -3 15 1 28 6 17 9 19 16 8 5 -8 8 -21 8 -29z
m-369 -220 c0 -5 18 -10 40 -10 22 0 40 -4 40 -10 0 -5 18 -10 40 -10 33 0 40
-3 40 -20 0 -16 7 -20 35 -20 33 0 43 -4 80 -37 7 -7 21 -13 29 -13 9 0 16 -7
16 -15 0 -10 -10 -15 -34 -15 -19 0 -41 -3 -50 -6 -11 -4 -22 5 -37 30 -20 34
-24 36 -70 36 -40 0 -55 5 -75 25 -14 14 -37 25 -51 25 -15 0 -36 11 -49 25
l-23 25 34 0 c19 0 35 -4 35 -10z m-160 -60 c0 -17 -7 -20 -40 -20 -33 0 -40
3 -40 20 0 17 7 20 40 20 33 0 40 -3 40 -20z m597 -12 c-3 -8 -6 -5 -6 6 -1
11 2 17 5 13 3 -3 4 -12 1 -19z m-517 2 c0 -5 18 -10 40 -10 33 0 40 -3 40
-20 0 -17 7 -20 40 -20 29 0 40 -4 40 -15 0 -11 11 -15 40 -15 36 0 40 -2 40
-25 0 -22 4 -25 40 -25 22 0 40 -4 40 -10 0 -5 18 -10 40 -10 29 0 40 -4 40
-15 0 -11 11 -15 39 -15 32 0 40 -4 45 -22 7 -27 7 -68 -1 -50 -2 6 -13 12
-23 12 -10 0 -20 7 -24 15 -3 9 -18 15 -38 15 -22 0 -37 7 -46 20 -9 16 -23
20 -62 20 -43 0 -50 3 -50 20 0 12 -7 20 -18 20 -9 0 -22 8 -29 19 -9 14 -28
19 -79 24 -47 3 -70 10 -76 21 -5 9 -18 16 -29 16 -12 0 -34 14 -49 30 l-28
30 34 0 c19 0 34 -4 34 -10z m518 -125 c0 -28 0 -29 -7 -5 -5 17 -9 21 -15 12
-12 -19 -37 -14 -62 13 l-23 25 32 0 c18 0 38 -5 45 -12 9 -9 12 -4 13 23 l1
34 8 -30 c4 -16 8 -43 8 -60z m-31 -37 c-3 -8 -6 -5 -6 6 -1 11 2 17 5 13 3
-3 4 -12 1 -19z"/>
<path d="M3645 5150 c-3 -5 -1 -10 4 -10 6 0 11 5 11 10 0 6 -2 10 -4 10 -3 0
-8 -4 -11 -10z"/>
<path d="M5140 5150 c0 -5 5 -10 10 -10 6 0 10 5 10 10 0 6 -4 10 -10 10 -5 0
-10 -4 -10 -10z"/>
<path d="M5893 5273 c-7 -2 -13 -9 -13 -14 0 -6 4 -8 9 -5 14 9 23 -25 11 -39
-8 -10 -8 -15 1 -21 8 -4 9 -3 5 4 -4 7 -2 12 3 12 6 0 11 11 11 25 0 14 -5
25 -11 25 -5 0 -7 5 -4 10 7 11 6 11 -12 3z"/>
<path d="M5046 5263 c-8 -8 33 -53 48 -53 6 0 3 5 -6 11 -10 5 -18 15 -18 21
0 6 7 5 17 -3 11 -9 14 -10 9 -2 -10 17 -42 34 -50 26z"/>
<path d="M1057 5243 c-10 -9 -9 -43 1 -43 4 0 9 11 10 25 2 26 0 29 -11 18z"/>
<path d="M2720 5218 c0 -18 -6 -20 -52 -17 -29 1 -66 1 -83 -1 -47 -4 55 -18
145 -19 63 -1 77 -4 87 -21 7 -10 10 -25 7 -33 -7 -19 28 -18 43 2 21 27 14
38 -7 12 -22 -25 -27 -13 -9 22 9 18 9 20 -2 10 -18 -18 -26 -16 -32 6 -5 20
10 31 43 31 10 0 20 5 22 12 3 8 7 6 11 -5 3 -9 2 -16 -2 -14 -9 2 -11 -3 -11
-25 0 -7 6 -4 12 7 7 11 11 22 9 23 -1 2 5 9 13 15 13 9 -7 12 -89 14 -99 1
-105 0 -105 -19z"/>
<path d="M5960 5175 c0 -14 2 -25 4 -25 2 0 6 11 8 25 3 14 1 25 -3 25 -5 0
-9 -11 -9 -25z"/>
<path d="M2000 5180 c0 -5 7 -7 15 -4 8 4 15 8 15 10 0 2 -7 4 -15 4 -8 0 -15
-4 -15 -10z"/>
<path d="M480 5169 c0 -5 5 -7 10 -4 6 3 10 8 10 11 0 2 -4 4 -10 4 -5 0 -10
-5 -10 -11z"/>
<path d="M5910 5172 c0 -6 7 -18 16 -26 8 -9 13 -20 9 -26 -3 -5 3 -18 14 -29
11 -11 16 -23 13 -27 -4 -4 -1 -4 6 0 11 6 9 13 -8 28 -12 11 -19 23 -15 26 3
4 10 0 15 -8 6 -8 10 -10 10 -5 0 6 -14 25 -30 44 -17 18 -30 29 -30 23z"/>
<path d="M2720 5150 c0 -5 18 -10 40 -10 28 0 40 -4 41 -15 3 -29 4 -33 13
-42 8 -8 -1 53 -11 70 -6 11 -83 9 -83 -3z"/>
<path d="M1056 5124 c-4 -14 -5 -28 -3 -31 3 -2 8 8 11 23 4 14 5 28 3 31 -3
2 -8 -8 -11 -23z"/>
<path d="M328 5113 c7 -3 16 -2 19 1 4 3 -2 6 -13 5 -11 0 -14 -3 -6 -6z"/>
<path d="M5980 5111 c0 -5 5 -13 10 -16 6 -3 10 -2 10 4 0 5 -4 13 -10 16 -5
3 -10 2 -10 -4z"/>
<path d="M2830 5091 c0 -5 -3 -18 -6 -28 -5 -16 -4 -16 10 1 18 23 20 36 6 36
-5 0 -10 -4 -10 -9z"/>
<path d="M31 5064 c0 -11 3 -14 6 -6 3 7 2 16 -1 19 -3 4 -6 -2 -5 -13z"/>
<path d="M5983 5050 c-11 -16 -10 -18 2 -14 8 4 15 12 15 20 0 19 -3 18 -17
-6z"/>
<path d="M34 4890 c0 -85 2 -120 3 -77 2 42 2 112 0 155 -1 42 -3 7 -3 -78z"/>
<path d="M2728 5033 c7 -3 16 -2 19 1 4 3 -2 6 -13 5 -11 0 -14 -3 -6 -6z"/>
<path d="M2810 5025 c0 -8 2 -15 4 -15 2 0 6 7 10 15 3 8 1 15 -4 15 -6 0 -10
-7 -10 -15z"/>
<path d="M3497 5010 c-16 -20 -13 -55 4 -44 5 3 7 10 3 15 -3 5 0 17 7 25 6 8
10 16 7 19 -2 2 -12 -4 -21 -15z"/>
<path d="M5993 4981 c6 -17 14 -28 19 -25 4 3 1 16 -8 30 -21 32 -25 30 -11
-5z"/>
<path d="M640 4980 c0 -13 11 -13 30 0 12 8 11 10 -7 10 -13 0 -23 -4 -23 -10z"/>
<path d="M2785 4980 c-16 -7 -17 -9 -3 -9 9 -1 20 4 23 9 7 11 7 11 -20 0z"/>
<path d="M3463 4957 c-4 -6 -13 -26 -19 -43 -8 -24 -8 -31 3 -31 8 0 13 13 14
31 1 26 2 28 7 9 l7 -22 11 22 c8 17 7 26 -2 35 -10 9 -15 9 -21 -1z"/>
<path d="M2724 4941 c0 -11 5 -17 13 -14 8 3 13 -2 13 -13 0 -9 3 -14 7 -11 7
7 -16 57 -27 57 -3 0 -6 -8 -6 -19z"/>
<path d="M3600 4945 c0 -13 4 -14 20 -5 11 6 20 13 20 15 0 3 -9 5 -20 5 -11
0 -20 -7 -20 -15z"/>
<path d="M6020 4940 c-7 -14 -7 -26 -1 -39 6 -10 9 -20 7 -22 -2 -2 3 -11 12
-19 14 -13 15 -13 10 0 -3 8 -9 23 -13 33 -4 9 -3 17 1 17 5 0 9 11 9 25 0 30
-10 32 -25 5z"/>
<path d="M6074 4951 c4 -6 0 -11 -8 -11 -9 0 -16 -4 -16 -10 0 -5 14 -10 31
-10 24 0 30 4 27 17 -2 10 -12 19 -22 21 -11 3 -16 0 -12 -7z"/>
<path d="M60 4913 c0 -13 5 -23 10 -23 13 0 13 11 0 30 -8 12 -10 11 -10 -7z"/>
<path d="M3514 4905 c-2 -19 3 -20 50 -15 28 3 60 11 71 17 16 9 7 12 -50 15
-65 3 -70 1 -71 -17z"/>
<path d="M3482 4895 c-11 -12 -10 -15 3 -15 8 0 15 7 15 15 0 18 -2 18 -18 0z"/>
<path d="M6060 4900 c0 -5 5 -10 11 -10 5 0 7 5 4 10 -3 6 -8 10 -11 10 -2 0
-4 -4 -4 -10z"/>
<path d="M2635 4883 c47 -3 83 -9 87 -16 5 -7 6 -28 3 -47 -5 -27 -3 -32 5
-20 9 12 11 10 6 -10 -4 -14 -8 -47 -11 -75 -3 -33 1 -23 11 30 8 44 20 88 25
99 7 13 7 16 0 11 -6 -3 -11 2 -11 12 0 14 -2 15 -9 5 -7 -11 -9 -11 -14 2 -5
13 -22 16 -89 14 l-83 -2 80 -3z"/>
<path d="M63 4840 c0 -25 2 -35 4 -22 2 12 2 32 0 45 -2 12 -4 2 -4 -23z"/>
<path d="M3618 4873 c12 -2 32 -2 45 0 12 2 2 4 -23 4 -25 0 -35 -2 -22 -4z"/>
<path d="M6057 4848 c-8 -18 -11 -34 -7 -36 4 -1 6 -15 4 -30 l-4 -27 9 25 c8
21 10 19 9 -20 0 -25 2 -58 5 -75 10 -70 27 -244 27 -295 2 -62 -15 -208 -32
-290 -11 -52 -20 -219 -11 -192 9 23 20 12 20 -20 1 -25 -1 -28 -6 -13 -7 18
-9 16 -19 -10 l-10 -30 -2 40 c-1 23 -4 31 -7 20 -3 -10 -11 -28 -18 -40 -8
-11 -17 -37 -20 -57 -7 -36 -6 -38 19 -38 30 0 32 3 10 24 -14 15 -12 16 20
16 29 0 36 -4 36 -20 0 -12 -7 -20 -16 -20 -27 0 2 -27 52 -50 24 -10 44 -25
44 -33 0 -14 60 -47 85 -47 7 0 21 -7 29 -16 9 -8 16 -11 16 -5 0 5 -12 19
-27 30 -16 12 -33 25 -40 31 -7 5 -17 10 -23 10 -6 0 -16 5 -23 10 -7 6 -24
19 -39 31 -37 27 -36 46 1 20 16 -12 45 -21 64 -21 29 0 36 -4 39 -22 2 -14
17 -31 40 -43 22 -11 38 -28 38 -37 0 -11 8 -18 19 -18 11 0 22 -4 25 -9 4 -5
30 -17 60 -26 35 -11 56 -24 59 -36 3 -10 21 -26 41 -36 22 -10 36 -24 36 -35
0 -25 -14 -23 -48 10 -87 79 -106 92 -113 80 -4 -7 -3 -16 4 -20 7 -5 3 -8
-12 -8 -41 0 -6 -19 92 -50 15 -5 38 -22 52 -38 14 -16 34 -32 45 -35 25 -6
26 2 3 19 -10 7 -15 16 -10 20 8 8 40 -7 76 -37 21 -17 26 -29 30 -73 1 -6 8
-1 16 10 10 13 17 15 22 8 5 -6 25 -17 45 -24 20 -8 39 -22 41 -31 3 -10 21
-26 41 -36 22 -10 36 -24 36 -35 0 -25 -19 -22 -42 7 -11 14 -28 25 -38 25
-10 0 -27 13 -36 30 -25 42 -43 46 -42 9 1 -17 4 -25 8 -19 5 8 14 2 26 -15
11 -15 31 -28 47 -29 15 -2 36 -15 48 -30 32 -40 73 -76 89 -76 18 0 11 14
-22 43 l-33 29 45 -22 c49 -25 116 -87 105 -98 -4 -4 -17 5 -30 21 -28 32 -45
35 -45 8 0 -11 9 -21 23 -24 56 -15 60 -24 60 -158 0 -74 3 -108 7 -84 3 22 6
348 6 725 0 377 -3 629 -6 560 -3 -69 -7 -111 -8 -93 -1 17 -8 34 -14 37 -10
5 -10 7 0 12 7 3 12 24 12 50 0 38 -5 50 -35 80 -19 19 -39 33 -44 29 -5 -3
-7 4 -4 15 5 17 0 20 -33 20 -30 1 -43 7 -57 25 -15 22 -16 25 -2 25 8 0 15 7
15 15 0 11 -11 15 -40 15 -31 0 -47 7 -67 26 -15 15 -33 24 -43 21 -13 -3 -16
0 -13 14 5 16 0 19 -32 19 -28 0 -42 6 -57 25 -11 14 -28 25 -39 25 -20 0
-109 81 -109 100 0 5 -18 10 -40 10 -30 0 -47 7 -66 25 -14 14 -31 25 -39 25
-8 0 -15 7 -15 15 0 11 -11 15 -40 15 -30 0 -47 7 -66 25 -14 14 -30 25 -35
25 -6 0 -27 17 -47 38 -20 21 -45 41 -54 45 -18 6 -26 37 -10 37 4 0 8 9 8 20
0 28 -4 25 -19 -12z m79 -228 c-3 -11 -9 -29 -12 -40 -4 -12 -2 -20 5 -20 6 0
11 8 12 18 0 12 3 10 10 -7 5 -13 8 -29 5 -35 -2 -6 -5 -3 -5 7 -1 28 -21 9
-22 -21 0 -15 -4 -36 -9 -47 -5 -12 -7 8 -5 55 4 109 4 110 16 110 7 0 9 -8 5
-20z m16 -153 c-8 -30 -21 -5 -15 28 5 25 7 27 13 10 4 -11 5 -28 2 -38z m-28
-231 c-3 -21 -8 -35 -11 -32 -2 2 -1 20 3 40 3 21 8 35 11 32 2 -2 1 -20 -3
-40z m23 -18 c-3 -8 -6 -5 -6 6 -1 11 2 17 5 13 3 -3 4 -12 1 -19z m653 12 c0
-5 -4 -10 -10 -10 -5 0 -10 5 -10 10 0 6 5 10 10 10 6 0 10 -4 10 -10z m-733
-232 c-3 -8 -6 -5 -6 6 -1 11 2 17 5 13 3 -3 4 -12 1 -19z m65 2 c20 0 28 -5
28 -17 0 -11 17 -26 43 -38 40 -19 43 -22 37 -54 l-5 -33 -24 19 c-13 11 -24
30 -25 43 -1 31 -26 39 -26 9 0 -20 -4 -18 -35 17 -29 33 -36 37 -46 24 -9
-13 -10 -12 -5 3 3 10 6 26 6 35 0 12 3 13 12 4 7 -7 25 -12 40 -12z m188
-135 c0 -22 4 -25 40 -25 29 0 40 -4 40 -15 0 -11 11 -15 39 -15 41 0 51 -15
43 -67 -5 -33 -20 -28 -43 12 -24 40 -39 45 -39 13 0 -20 -4 -18 -31 15 -18
22 -37 36 -45 33 -8 -3 -21 6 -31 22 -9 15 -23 33 -32 40 -12 10 -9 12 22 12
33 0 37 -3 37 -25z m-160 -20 c0 -28 -4 -35 -20 -35 -18 0 -25 11 -21 34 1 4
-4 14 -10 22 -9 11 -6 14 20 14 29 0 31 -2 31 -35z m80 -55 c0 -16 -3 -30 -6
-30 -3 0 -19 14 -34 30 l-28 30 34 0 c31 0 34 -3 34 -30z m30 -10 c0 -5 -2
-10 -4 -10 -3 0 -8 5 -11 10 -3 6 -1 10 4 10 6 0 11 -4 11 -10z m50 -36 c0
-13 7 -15 40 -9 39 7 40 6 40 -24 0 -38 -23 -42 -51 -8 -16 19 -20 20 -28 7
-8 -12 -14 -11 -35 10 -34 31 -33 40 4 40 21 0 30 -5 30 -16z m240 -39 c0 -22
4 -25 40 -25 32 0 40 -4 40 -18 0 -12 13 -23 38 -31 20 -8 52 -29 70 -48 18
-19 44 -36 59 -38 15 -1 29 -8 31 -14 2 -6 12 -11 23 -11 10 0 19 -5 19 -11 0
-14 55 -69 69 -69 6 0 11 -5 11 -11 0 -13 55 -69 68 -69 15 0 25 -71 12 -84
-8 -8 -10 -7 -5 6 4 11 0 20 -14 28 -11 6 -28 25 -37 43 -14 26 -18 29 -23 15
-5 -15 -11 -12 -35 18 -17 22 -34 33 -42 30 -10 -4 -22 7 -35 29 -19 32 -30
40 -53 36 -15 -3 -37 22 -32 36 3 7 -4 23 -16 35 -20 20 -22 20 -28 4 -5 -17
-7 -16 -29 1 -13 11 -24 30 -25 43 -1 31 -26 39 -26 9 0 -21 -3 -20 -31 14
-18 22 -37 36 -45 33 -8 -3 -21 6 -31 22 -9 15 -23 33 -32 40 -12 10 -9 12 22
12 33 0 37 -3 37 -25z m-80 -75 c0 -16 -3 -30 -6 -30 -3 0 -19 14 -34 30 l-28
30 34 0 c31 0 34 -3 34 -30z m80 -30 c0 -24 4 -30 21 -30 29 0 59 -18 59 -35
0 -8 5 -15 11 -15 14 0 69 -55 69 -69 0 -18 -10 -13 -43 22 -26 27 -32 29 -35
15 -5 -27 -42 -4 -42 26 0 31 -28 56 -40 36 -7 -12 -14 -10 -34 10 -33 30 -33
40 0 40 19 0 25 4 20 15 -3 8 -1 15 4 15 6 0 10 -13 10 -30z m240 -190 c0 -36
-6 -37 -37 -8 -31 29 -29 38 7 38 27 0 30 -3 30 -30z m58 -39 c12 -11 22 -24
22 -30 0 -6 9 -11 21 -11 29 0 59 -18 59 -35 0 -8 5 -15 11 -15 14 0 69 -55
69 -69 0 -19 -35 -12 -48 9 -7 12 -18 20 -25 19 -27 -3 -37 2 -37 20 0 10 -9
29 -20 42 -16 20 -21 22 -29 9 -8 -12 -14 -11 -36 10 -14 13 -24 29 -21 36 2
6 -1 17 -7 23 -19 19 16 12 41 -8z"/>
<path d="M6880 3450 c0 -5 5 -10 11 -10 5 0 7 5 4 10 -3 6 -8 10 -11 10 -2 0
-4 -4 -4 -10z"/>
<path d="M80 4859 c0 -5 5 -7 10 -4 6 3 10 8 10 11 0 2 -4 4 -10 4 -5 0 -10
-5 -10 -11z"/>
<path d="M3406 4841 c-10 -18 -13 -30 -7 -27 6 4 11 0 11 -8 0 -9 5 -16 11
-16 6 0 9 6 6 14 -3 8 -1 16 6 19 9 3 9 10 1 28 l-11 24 -17 -34z m16 -13 c-7
-7 -12 -8 -12 -2 0 6 3 14 7 17 3 4 9 5 12 2 2 -3 -1 -11 -7 -17z"/>
<path d="M6240 4840 c0 -24 15 -27 24 -4 9 22 8 24 -9 24 -8 0 -15 -9 -15 -20z"/>
<path d="M640 4839 c0 -5 5 -7 10 -4 6 3 10 8 10 11 0 2 -4 4 -10 4 -5 0 -10
-5 -10 -11z"/>
<path d="M6320 4810 c0 -5 5 -10 11 -10 5 0 7 5 4 10 -3 6 -8 10 -11 10 -2 0
-4 -4 -4 -10z"/>
<path d="M2498 4793 c12 -2 32 -2 45 0 12 2 2 4 -23 4 -25 0 -35 -2 -22 -4z"/>
<path d="M6160 4790 c0 -5 18 -10 40 -10 22 0 40 5 40 10 0 6 -18 10 -40 10
-22 0 -40 -4 -40 -10z"/>
<path d="M60 4774 c0 -8 5 -12 10 -9 6 3 10 10 10 16 0 5 -4 9 -10 9 -5 0 -10
-7 -10 -16z"/>
<path d="M3369 4758 c-21 -51 -20 -53 30 -49 25 2 40 6 34 8 -7 3 -13 12 -14
21 0 14 -2 13 -10 -3 -7 -16 -8 -13 -6 14 3 45 -17 50 -34 9z m23 -13 c-2 -14
-9 -25 -14 -25 -6 0 -7 7 -4 16 3 9 6 20 6 25 0 5 4 9 9 9 4 0 6 -11 3 -25z"/>
<path d="M2320 4770 c0 -5 5 -10 11 -10 5 0 7 5 4 10 -3 6 -8 10 -11 10 -2 0
-4 -4 -4 -10z"/>
<path d="M6400 4765 c0 -16 16 -20 24 -6 3 5 -1 11 -9 15 -9 3 -15 0 -15 -9z"/>
<path d="M7701 4734 c0 -11 3 -14 6 -6 3 7 2 16 -1 19 -3 4 -6 -2 -5 -13z"/>
<path d="M32 4662 c1 -34 6 -62 10 -62 8 0 -1 110 -9 120 -3 3 -3 -23 -1 -58z"/>
<path d="M3600 4681 c0 -6 17 -11 40 -11 22 0 40 -4 40 -10 0 -5 18 -10 40
-10 29 0 40 4 40 15 0 8 -8 15 -19 15 -10 0 -46 3 -80 6 -43 5 -61 3 -61 -5z"/>
<path d="M3346 4657 c-5 -20 26 -31 70 -24 22 3 19 4 -13 6 -24 0 -43 5 -43
10 0 6 19 11 43 13 l42 3 -47 5 c-39 4 -48 2 -52 -13z"/>
<path d="M6550 4650 c-12 -8 -10 -10 8 -10 13 0 20 4 17 10 -7 12 -6 12 -25 0z"/>
<path d="M3538 4643 c12 -2 32 -2 45 0 12 2 2 4 -23 4 -25 0 -35 -2 -22 -4z"/>
<path d="M1753 4600 c0 -25 2 -35 4 -22 2 12 2 32 0 45 -2 12 -4 2 -4 -23z"/>
<path d="M2160 4630 c0 -5 4 -10 9 -10 6 0 13 5 16 10 3 6 -1 10 -9 10 -9 0
-16 -4 -16 -10z"/>
<path d="M2652 4615 c0 -16 2 -22 5 -12 2 9 2 23 0 30 -3 6 -5 -1 -5 -18z"/>
<path d="M2677 4633 c-4 -3 -7 -13 -7 -22 1 -13 3 -13 11 2 11 19 8 33 -4 20z"/>
<path d="M2706 4625 c-3 -9 -6 -26 -5 -38 1 -16 4 -12 10 12 10 34 6 55 -5 26z"/>
<path d="M6640 4621 c0 -12 6 -21 16 -21 9 0 14 7 12 17 -5 25 -28 28 -28 4z"/>
<path d="M480 4620 c0 -5 7 -7 15 -4 8 4 15 8 15 10 0 2 -7 4 -15 4 -8 0 -15
-4 -15 -10z"/>
<path d="M3600 4621 c0 -10 148 -26 157 -17 4 3 -12 6 -35 6 -23 0 -42 5 -42
10 0 6 -18 10 -40 10 -22 0 -40 -4 -40 -9z"/>
<path d="M4000 4600 c0 -5 12 -10 28 -10 21 0 24 2 12 10 -20 13 -40 13 -40 0z"/>
<path d="M2671 4578 c-1 -10 -5 -18 -11 -18 -5 0 -10 -7 -10 -15 0 -8 5 -15
10 -15 6 0 10 8 10 18 0 14 2 15 10 2 12 -18 12 -2 0 25 -7 17 -9 17 -9 3z"/>
<path d="M6720 4576 c0 -9 7 -16 16 -16 9 0 14 5 12 12 -6 18 -28 21 -28 4z"/>
<path d="M4880 4570 c0 -5 5 -10 11 -10 5 0 7 5 4 10 -3 6 -8 10 -11 10 -2 0
-4 -4 -4 -10z"/>
<path d="M3332 4564 c9 -3 19 -15 22 -27 4 -18 4 -18 3 3 -1 17 -8 25 -22 27
-14 1 -15 0 -3 -3z"/>
<path d="M3943 4563 c15 -2 37 -2 50 0 12 2 0 4 -28 4 -27 0 -38 -2 -22 -4z"/>
<path d="M31 4544 c0 -11 3 -14 6 -6 3 7 2 16 -1 19 -3 4 -6 -2 -5 -13z"/>
<path d="M4173 4553 c9 -2 25 -2 35 0 9 3 1 5 -18 5 -19 0 -27 -2 -17 -5z"/>
<path d="M6560 4550 c0 -5 18 -10 40 -10 22 0 40 5 40 10 0 6 -18 10 -40 10
-22 0 -40 -4 -40 -10z"/>
<path d="M7753 4505 c0 -33 2 -45 4 -27 2 18 2 45 0 60 -2 15 -4 0 -4 -33z"/>
<path d="M6800 4525 c0 -16 16 -20 24 -6 3 5 -1 11 -9 15 -9 3 -15 0 -15 -9z"/>
<path d="M2692 4500 c0 -14 2 -19 5 -12 2 6 2 18 0 25 -3 6 -5 1 -5 -13z"/>
<path d="M1751 4494 c0 -11 3 -14 6 -6 3 7 2 16 -1 19 -3 4 -6 -2 -5 -13z"/>
<path d="M2660 4500 c0 -8 5 -22 10 -30 9 -13 10 -13 10 0 0 8 -5 22 -10 30
-9 13 -10 13 -10 0z"/>
<path d="M2641 4478 c-1 -15 4 -30 9 -33 12 -7 12 12 0 40 -8 18 -9 17 -9 -7z"/>
<path d="M3313 4465 c0 -22 2 -30 4 -17 2 12 2 30 0 40 -3 9 -5 -1 -4 -23z"/>
<path d="M3352 4470 c0 -14 2 -19 5 -12 2 6 2 18 0 25 -3 6 -5 1 -5 -13z"/>
<path d="M3778 4483 c12 -2 32 -2 45 0 12 2 2 4 -23 4 -25 0 -35 -2 -22 -4z"/>
<path d="M4258 4483 c12 -2 32 -2 45 0 12 2 2 4 -23 4 -25 0 -35 -2 -22 -4z"/>
<path d="M6880 4460 c0 -13 7 -20 19 -20 14 0 18 5 14 20 -3 11 -12 20 -19 20
-8 0 -14 -9 -14 -20z"/>
<path d="M7053 4400 c0 -47 2 -66 4 -42 2 23 2 61 0 85 -2 23 -4 4 -4 -43z"/>
<path d="M4240 4461 c0 -5 36 -12 80 -16 44 -4 80 -11 80 -16 0 -5 10 -9 23
-9 21 1 22 1 3 15 -11 8 -39 15 -63 15 -24 0 -43 5 -43 10 0 6 -18 10 -40 10
-22 0 -40 -4 -40 -9z"/>
<path d="M1103 4380 c0 -36 2 -50 4 -32 2 17 2 47 0 65 -2 17 -4 3 -4 -33z"/>
<path d="M3345 4419 c-4 -12 -3 -25 2 -30 6 -6 10 2 10 21 0 35 -3 38 -12 9z"/>
<path d="M7752 4420 c0 -14 2 -19 5 -12 2 6 2 18 0 25 -3 6 -5 1 -5 -13z"/>
<path d="M4480 4415 c0 -8 9 -15 20 -15 24 0 27 15 4 24 -22 9 -24 8 -24 -9z"/>
<path d="M6952 4415 c-11 -13 -9 -15 13 -15 16 0 25 5 23 12 -6 18 -21 19 -36
3z"/>
<path d="M2692 4400 c0 -14 2 -19 5 -12 2 6 2 18 0 25 -3 6 -5 1 -5 -13z"/>
<path d="M65 4399 c-4 -6 -5 -12 -2 -15 2 -3 7 2 10 11 7 17 1 20 -8 4z"/>
<path d="M3618 4403 c12 -2 32 -2 45 0 12 2 2 4 -23 4 -25 0 -35 -2 -22 -4z"/>
<path d="M4098 4403 c12 -2 32 -2 45 0 12 2 2 4 -23 4 -25 0 -35 -2 -22 -4z"/>
<path d="M2651 4384 c0 -11 3 -14 6 -6 3 7 2 16 -1 19 -3 4 -6 -2 -5 -13z"/>
<path d="M3312 4350 c0 -14 2 -19 5 -12 2 6 2 18 0 25 -3 6 -5 1 -5 -13z"/>
<path d="M4606 4360 c29 -4 58 -11 65 -15 8 -3 5 1 -5 9 -12 10 -37 16 -65 15
l-46 -1 51 -8z"/>
<path d="M1848 4343 c7 -3 16 -2 19 1 4 3 -2 6 -13 5 -11 0 -14 -3 -6 -6z"/>
<path d="M4338 4343 c12 -2 32 -2 45 0 12 2 2 4 -23 4 -25 0 -35 -2 -22 -4z"/>
<path d="M4720 4330 c0 -13 7 -20 20 -20 24 0 27 25 4 34 -23 9 -24 8 -24 -14z"/>
<path d="M2660 4305 c0 -8 2 -15 4 -15 2 0 6 7 10 15 3 8 1 15 -4 15 -6 0 -10
-7 -10 -15z"/>
<path d="M4910 4311 c0 -5 10 -13 23 -17 12 -4 25 -11 28 -16 3 -5 21 -8 40
-6 l34 3 -47 15 c-27 8 -48 18 -48 22 0 4 -7 8 -15 8 -8 0 -15 -4 -15 -9z"/>
<path d="M7698 3599 c-1 -398 -3 -743 -3 -767 0 -23 -3 -42 -7 -42 -5 0 -8 -9
-8 -21 0 -15 11 -25 40 -36 37 -15 40 -19 40 -55 0 -38 0 -38 40 -38 37 0 40
-2 40 -28 0 -36 16 -52 52 -52 23 0 28 -4 28 -26 0 -33 29 -74 102 -145 32
-31 58 -64 58 -73 0 -19 52 -76 69 -76 6 0 11 -5 11 -11 0 -14 55 -69 69 -69
6 0 11 -13 11 -28 0 -15 5 -33 12 -40 9 -9 9 -12 0 -12 -7 0 -12 -9 -12 -20 0
-24 -13 -26 -30 -5 -9 11 -10 18 -1 29 9 11 5 19 -20 41 -24 19 -29 29 -20 35
9 5 10 10 2 14 -6 4 -11 2 -11 -3 0 -6 -7 -11 -15 -11 -11 0 -15 11 -15 35 0
38 -31 82 -49 71 -15 -10 -62 40 -55 57 3 9 -8 22 -31 36 -25 14 -35 27 -31
36 7 18 -30 59 -45 50 -14 -9 -41 16 -35 32 7 18 -29 54 -47 47 -8 -3 -20 2
-27 11 -12 14 -11 18 0 25 12 7 10 14 -10 35 -13 14 -29 24 -36 21 -15 -6 -34
13 -28 29 3 7 -9 24 -26 39 -19 16 -29 31 -24 38 5 9 4 10 -4 3 -5 -5 -13 -35
-17 -65 -5 -42 -3 -51 5 -40 9 12 10 11 5 -8 -4 -13 -2 -29 4 -36 9 -10 8 -15
-4 -20 -9 -3 -13 -2 -10 4 3 5 1 18 -4 27 -9 16 -10 15 -11 -5 0 -13 -5 -33
-11 -44 -9 -16 -7 -24 5 -36 15 -15 16 -15 16 0 0 9 -3 18 -7 21 -5 2 -3 2 4
1 6 -2 14 0 16 4 2 4 2 0 0 -8 -3 -8 -7 -27 -10 -42 -3 -16 -12 -28 -19 -28
-9 0 -14 -11 -14 -27 l0 -28 15 25 c8 14 18 33 21 43 3 9 10 17 14 17 13 0 80
-87 80 -104 0 -24 -27 -8 -40 24 -15 35 -35 44 -55 24 -19 -19 -19 -25 -1 -18
18 7 96 -67 96 -91 0 -9 14 -30 30 -47 17 -16 30 -27 30 -25 0 14 -32 77 -46
91 -9 10 -13 20 -9 24 4 4 15 -3 25 -15 10 -13 25 -23 34 -23 9 0 16 -7 16
-15 0 -15 45 -65 59 -65 5 0 12 -19 17 -42 7 -35 16 -47 47 -63 20 -11 37 -27
37 -36 0 -9 33 -50 74 -93 63 -65 75 -83 81 -121 4 -31 11 -45 22 -45 19 0 63
-40 63 -59 0 -7 18 -35 40 -61 22 -26 40 -53 40 -58 0 -16 49 -62 65 -62 10 0
15 -11 15 -36 0 -28 10 -48 40 -84 22 -26 40 -53 40 -59 0 -6 13 -24 30 -39
17 -17 33 -46 38 -68 6 -28 13 -39 25 -38 22 2 22 -9 -1 -29 -22 -20 -42 -6
-42 29 0 13 -5 26 -10 29 -6 3 -7 17 -4 31 3 13 2 24 -4 24 -10 0 -22 -32 -22
-60 0 -9 13 -30 29 -47 22 -24 34 -30 52 -26 34 9 37 18 32 87 -4 43 -11 66
-24 78 -10 9 -19 23 -19 32 0 9 -8 16 -20 16 -17 0 -20 7 -20 40 0 33 -3 40
-20 40 -11 0 -20 7 -20 15 0 9 -7 18 -15 21 -8 4 -15 15 -15 26 0 10 -11 30
-25 44 -14 14 -25 31 -25 39 0 23 37 18 43 -5 3 -11 12 -20 21 -20 11 0 16 -9
16 -26 0 -18 13 -39 40 -65 32 -31 40 -46 40 -74 0 -19 5 -35 11 -35 20 0 71
-61 74 -88 1 -15 5 -35 10 -45 5 -11 3 -23 -4 -30 -9 -9 -11 -7 -6 8 l6 20
-10 -20 c-5 -11 -12 -27 -16 -35 -15 -38 -32 -57 -47 -54 -11 1 -15 -5 -14
-20 2 -13 6 -28 10 -34 3 -6 2 -13 -4 -17 -5 -3 -10 -14 -9 -23 0 -12 3 -10
10 6 5 13 13 21 18 18 5 -4 8 5 6 19 -1 14 6 35 17 47 10 12 28 41 40 65 18
36 20 48 10 63 -9 16 -9 18 2 14 7 -3 16 2 20 11 3 9 2 13 -4 10 -11 -7 -26
42 -16 52 3 4 6 -3 6 -15 0 -14 6 -22 16 -22 13 0 14 3 4 15 -6 8 -9 24 -5 37
4 16 3 19 -3 9 -7 -10 -11 -10 -17 -1 -4 6 -13 9 -20 6 -8 -3 -11 2 -8 15 4
12 -3 26 -18 38 -19 15 -21 21 -11 34 10 12 7 19 -19 42 -24 19 -29 29 -20 35
9 5 10 10 2 14 -6 4 -11 2 -11 -3 0 -6 -7 -11 -15 -11 -11 0 -15 11 -15 38 0
37 -3 41 -70 91 -20 15 -22 21 -12 33 10 12 6 21 -23 46 -19 18 -39 32 -45 32
-5 0 -10 19 -10 41 0 40 -1 41 -29 37 -23 -3 -27 -1 -23 15 3 11 -3 24 -17 34
-13 8 -20 21 -17 29 3 8 -4 24 -15 35 -22 22 -19 49 5 49 9 0 18 -14 22 -36 4
-19 14 -38 23 -41 25 -10 81 -70 81 -88 0 -18 52 -75 69 -75 6 0 11 -11 11
-25 0 -28 44 -100 66 -109 8 -3 14 -15 14 -26 0 -22 50 -80 69 -80 6 0 11 -11
11 -25 0 -28 44 -100 65 -109 10 -4 18 12 27 57 7 34 12 68 12 74 -1 7 3 10 9
6 6 -4 8 4 5 21 -3 14 -1 29 4 32 5 3 8 28 7 55 -2 27 0 52 4 55 11 11 8 36
-3 29 -5 -3 -10 1 -10 9 0 8 4 17 9 20 5 3 7 16 3 28 -3 11 -1 19 4 16 5 -4 9
29 10 74 1 44 -2 75 -6 69 -6 -10 -4 110 3 197 3 36 -10 45 -15 9 -2 -12 -4
24 -5 81 0 56 3 102 8 102 5 0 9 18 9 40 0 22 -4 40 -10 40 -6 0 -11 111 -12
308 -2 275 -3 289 -8 132 -3 -96 -7 -162 -8 -146 -1 16 -5 27 -8 23 -4 -3 -7
-59 -7 -124 0 -65 -2 -110 -5 -100 -2 10 -17 31 -33 46 -27 26 -29 33 -29 105
0 44 -4 76 -10 76 -6 0 -10 -27 -10 -60 0 -33 -4 -60 -8 -60 -20 0 -32 28 -32
72 0 26 -4 48 -10 48 -5 0 -10 18 -10 40 0 22 -4 40 -10 40 -5 0 -10 -18 -10
-40 0 -22 -2 -40 -4 -40 -8 0 -76 72 -76 81 0 5 -54 63 -120 129 -66 66 -120
124 -120 129 0 15 -49 61 -65 61 -8 0 -15 7 -15 15 0 18 -47 65 -65 65 -8 0
-15 7 -15 15 0 18 -47 65 -65 65 -8 0 -15 7 -15 15 0 16 -46 65 -61 65 -5 0
-47 38 -94 85 l-85 85 0 75 c0 49 4 75 11 75 8 0 8 4 0 13 -6 8 -12 80 -14
188 -1 96 -5 -24 -7 -266 l-5 -440 -5 335 c-4 243 -6 285 -8 153 -1 -106 -6
-183 -11 -183 -6 0 -10 150 -11 377 0 207 -3 379 -5 382 -3 2 -6 -322 -7 -720z
m31 -281 c0 -112 -2 -198 -4 -193 -8 23 -11 395 -4 395 5 0 9 -91 8 -202z m-2
-250 c-3 -7 -5 -2 -5 12 0 14 2 19 5 13 2 -7 2 -19 0 -25z m20 -80 c-2 -18 -4
-6 -4 27 0 33 2 48 4 33 2 -15 2 -42 0 -60z m-20 15 c-3 -10 -5 -4 -5 12 0 17
2 24 5 18 2 -7 2 -21 0 -30z m17 -93 c10 -13 9 -13 -6 -1 -10 7 -18 21 -17 30
0 13 1 14 6 1 3 -8 11 -22 17 -30z m-7 -62 c-3 -7 -5 -2 -5 12 0 14 2 19 5 13
2 -7 2 -19 0 -25z m10 -40 c-3 -8 -6 -5 -6 6 -1 11 2 17 5 13 3 -3 4 -12 1
-19z m-7 -38 c0 -5 -7 -10 -15 -10 -8 0 -15 5 -15 10 0 6 7 10 15 10 8 0 15
-4 15 -10z m1007 -207 c-2 -32 -3 -8 -3 52 0 61 1 87 3 58 2 -29 2 -78 0 -110z
m-1037 17 c0 -5 -2 -10 -4 -10 -3 0 -8 5 -11 10 -3 6 -1 10 4 10 6 0 11 -4 11
-10z m50 -46 c0 -21 4 -25 19 -21 14 3 17 0 14 -14 -4 -14 -15 -19 -39 -19
-33 0 -34 1 -34 40 0 33 3 40 20 40 15 0 20 -7 20 -26z m987 -116 c-2 -13 -4
-3 -4 22 0 25 2 35 4 23 2 -13 2 -33 0 -45z m-924 28 c23 -18 22 -46 -2 -46
-19 0 -31 18 -31 46 0 17 10 17 33 0z m257 -56 c0 -5 -4 -10 -10 -10 -5 0 -10
5 -10 10 0 6 5 10 10 10 6 0 10 -4 10 -10z m-160 -40 c0 -16 5 -30 11 -30 14
0 69 -55 69 -69 0 -6 5 -11 11 -11 17 0 69 -57 69 -75 0 -10 18 -35 40 -56 22
-22 40 -49 40 -60 0 -16 5 -20 19 -16 14 3 17 0 14 -14 -4 -14 -15 -19 -39
-19 -33 0 -34 1 -34 40 0 33 -3 40 -20 40 -11 0 -20 7 -20 15 0 9 -7 18 -15
21 -8 4 -15 14 -15 23 0 22 -29 62 -43 60 -28 -3 -37 2 -37 21 0 12 -11 32
-25 46 -14 14 -25 29 -25 35 0 5 -16 25 -35 44 l-34 35 34 0 c32 0 35 -2 35
-30z m827 -92 c-2 -13 -4 -3 -4 22 0 25 2 35 4 23 2 -13 2 -33 0 -45z m0 -180
c-2 -29 -3 -8 -3 47 0 55 1 79 3 53 2 -26 2 -71 0 -100z m-506 -140 c0 -24 3
-37 6 -30 2 6 13 12 23 12 13 0 23 -14 34 -46 9 -26 33 -62 56 -85 32 -31 40
-46 40 -74 0 -28 -4 -35 -20 -35 -17 0 -20 7 -20 40 0 33 -3 40 -20 40 -11 0
-20 7 -20 15 0 9 -6 18 -14 21 -8 3 -16 19 -20 35 -4 20 -17 36 -41 51 -23 13
-34 26 -31 35 3 8 -5 25 -19 39 l-24 24 34 0 c34 0 35 -1 36 -42z m526 -50
c-3 -7 -5 -2 -5 12 0 14 2 19 5 13 2 -7 2 -19 0 -25z m-230 -40 c-3 -7 -5 -2
-5 12 0 14 2 19 5 13 2 -7 2 -19 0 -25z m213 -43 l-10 -30 5 33 c3 23 1 31 -7
26 -7 -5 -8 -3 -3 5 13 23 25 -3 15 -34z m-190 -55 c0 -5 -4 -10 -10 -10 -5 0
-10 5 -10 10 0 6 5 10 10 10 6 0 10 -4 10 -10z m137 -142 c-3 -7 -5 -2 -5 12
0 14 2 19 5 13 2 -7 2 -19 0 -25z m30 -10 c-3 -8 -6 -5 -6 6 -1 11 2 17 5 13
3 -3 4 -12 1 -19z m-146 -431 c-10 -9 -11 -8 -5 6 3 10 9 15 12 12 3 -3 0 -11
-7 -18z"/>
<path d="M2691 4294 c0 -11 3 -14 6 -6 3 7 2 16 -1 19 -3 4 -6 -2 -5 -13z"/>
<path d="M5040 4281 c0 -5 9 -13 20 -16 11 -3 20 -11 20 -17 0 -6 3 -8 7 -5 3
4 -2 16 -12 27 -19 21 -35 26 -35 11z"/>
<path d="M1101 4244 c0 -11 3 -14 6 -6 3 7 2 16 -1 19 -3 4 -6 -2 -5 -13z"/>
<path d="M3331 4233 c-1 -17 4 -35 9 -38 11 -7 11 9 0 45 -8 24 -8 24 -9 -7z"/>
<path d="M4962 4244 c4 -23 27 -31 24 -8 -2 10 -8 20 -15 22 -8 3 -12 -3 -9
-14z"/>
<path d="M5040 4210 c0 -5 7 -10 16 -10 8 0 12 5 9 10 -3 6 -10 10 -16 10 -5
0 -9 -4 -9 -10z"/>
<path d="M5200 4201 c0 -5 9 -13 20 -16 11 -3 20 -11 20 -17 0 -6 3 -8 7 -5 3
4 -2 16 -12 27 -19 21 -35 26 -35 11z"/>
<path d="M2652 4180 c0 -14 2 -19 5 -12 2 6 2 18 0 25 -3 6 -5 1 -5 -13z"/>
<path d="M5120 4175 c0 -8 9 -15 20 -15 24 0 27 15 4 24 -22 9 -24 8 -24 -9z"/>
<path d="M1103 4145 c0 -22 2 -30 4 -17 2 12 2 30 0 40 -3 9 -5 -1 -4 -23z"/>
<path d="M4800 4170 c0 -5 18 -10 40 -10 29 0 40 -4 40 -15 0 -8 4 -15 9 -15
5 0 14 7 21 15 10 13 9 15 -9 15 -11 0 -21 5 -21 10 0 6 -18 10 -40 10 -22 0
-40 -4 -40 -10z"/>
<path d="M55 4130 c-3 -5 -1 -10 4 -10 6 0 11 5 11 10 0 6 -2 10 -4 10 -3 0
-8 -4 -11 -10z"/>
<path d="M7732 4105 c0 -16 2 -22 5 -12 2 9 2 23 0 30 -3 6 -5 -1 -5 -18z"/>
<path d="M2721 4094 c0 -11 3 -14 6 -6 3 7 2 16 -1 19 -3 4 -6 -2 -5 -13z"/>
<path d="M5280 4096 c0 -9 7 -16 16 -16 9 0 14 5 12 12 -6 18 -28 21 -28 4z"/>
<path d="M1103 4050 c0 -30 2 -43 4 -27 2 15 2 39 0 55 -2 15 -4 2 -4 -28z"/>
<path d="M5320 4072 c0 -5 11 -14 25 -20 20 -10 24 -17 21 -49 -4 -41 9 -77
25 -68 5 4 9 12 9 18 0 7 -4 6 -10 -3 -8 -12 -10 -10 -11 10 -5 69 -3 106 6
112 6 4 -7 8 -27 8 -21 0 -38 -4 -38 -8z"/>
<path d="M5420 4067 c-20 -9 -26 -20 -27 -47 l-2 -35 8 33 c10 37 18 49 28 39
4 -4 1 -13 -5 -19 -7 -7 -12 -19 -12 -27 0 -8 2 -12 5 -10 5 6 36 79 33 79 -2
-1 -14 -6 -28 -13z"/>
<path d="M3392 4035 c0 -16 2 -22 5 -12 2 9 2 23 0 30 -3 6 -5 -1 -5 -18z"/>
<path d="M5200 4010 c0 -5 9 -10 21 -10 11 0 17 5 14 10 -3 6 -13 10 -21 10
-8 0 -14 -4 -14 -10z"/>
<path d="M2726 4001 c-4 -5 -3 -17 0 -26 5 -13 8 -14 15 -3 5 7 9 19 9 26 0
14 -16 16 -24 3z"/>
<path d="M6030 3935 c0 -8 4 -15 10 -15 5 0 7 7 4 15 -4 8 -8 15 -10 15 -2 0
-4 -7 -4 -15z"/>
<path d="M5299 3903 c-13 -16 -12 -17 4 -4 9 7 17 15 17 17 0 8 -8 3 -21 -13z"/>
<path d="M1102 3870 c0 -19 2 -27 5 -17 2 9 2 25 0 35 -3 9 -5 1 -5 -18z"/>
<path d="M3460 3890 c0 -5 5 -10 11 -10 5 0 7 5 4 10 -3 6 -8 10 -11 10 -2 0
-4 -4 -4 -10z"/>
<path d="M3501 3884 c0 -11 3 -14 6 -6 3 7 2 16 -1 19 -3 4 -6 -2 -5 -13z"/>
<path d="M5338 3860 c-18 -26 -33 -38 -43 -34 -8 4 -15 1 -15 -5 0 -6 5 -12
10 -12 24 -4 30 -4 28 2 -2 3 9 20 25 38 22 27 35 52 25 51 -2 -1 -15 -18 -30
-40z"/>
<path d="M2731 3874 c0 -11 3 -14 6 -6 3 7 2 16 -1 19 -3 4 -6 -2 -5 -13z"/>
<path d="M5290 3861 c0 -11 4 -22 9 -25 4 -3 6 6 3 19 -5 30 -12 33 -12 6z"/>
<path d="M3445 3860 c3 -5 8 -10 11 -10 2 0 4 5 4 10 0 6 -5 10 -11 10 -5 0
-7 -4 -4 -10z"/>
<path d="M1045 3830 c3 -5 8 -10 11 -10 2 0 4 5 4 10 0 6 -5 10 -11 10 -5 0
-7 -4 -4 -10z"/>
<path d="M3496 3827 c3 -10 9 -15 12 -12 3 3 0 11 -7 18 -10 9 -11 8 -5 -6z"/>
<path d="M8753 3800 c0 -25 2 -35 4 -22 2 12 2 32 0 45 -2 12 -4 2 -4 -23z"/>
<path d="M5290 3790 c0 -5 5 -10 11 -10 5 0 7 5 4 10 -3 6 -8 10 -11 10 -2 0
-4 -4 -4 -10z"/>
<path d="M5968 3752 c-3 -12 -2 -20 4 -19 6 1 13 -4 16 -12 3 -10 0 -11 -9 -5
-11 6 -12 5 -2 -7 8 -10 9 -27 3 -54 -7 -31 -6 -42 6 -48 7 -4 14 -15 14 -23
0 -9 5 -14 12 -12 21 7 20 25 -2 31 -21 5 -25 36 -11 86 6 21 8 22 20 7 19
-22 34 -20 21 3 -5 11 -18 22 -29 26 -10 3 -23 15 -28 27 l-10 22 -5 -22z"/>
<path d="M1103 3720 c0 -25 2 -35 4 -22 2 12 2 32 0 45 -2 12 -4 2 -4 -23z"/>
<path d="M3526 3747 c3 -10 9 -15 12 -12 3 3 0 11 -7 18 -10 9 -11 8 -5 -6z"/>
<path d="M3585 3749 c-4 -6 -5 -12 -2 -15 2 -3 7 2 10 11 7 17 1 20 -8 4z"/>
<path d="M5207 3743 c-4 -3 -7 -11 -7 -17 0 -6 5 -5 12 2 6 6 9 14 7 17 -3 3
-9 2 -12 -2z"/>
<path d="M71 3724 c0 -11 3 -14 6 -6 3 7 2 16 -1 19 -3 4 -6 -2 -5 -13z"/>
<path d="M5226 3724 c-8 -22 -8 -24 6 -24 6 0 8 3 5 7 -4 3 -2 12 4 20 7 8 8
13 1 13 -5 0 -13 -7 -16 -16z"/>
<path d="M5941 3689 c-6 -18 -9 -34 -7 -37 3 -2 8 8 12 23 5 19 9 23 15 14 4
-7 10 -11 13 -9 2 3 -2 13 -9 23 -12 16 -14 15 -24 -14z"/>
<path d="M5205 3690 c6 -10 -6 -14 -35 -11 -13 2 -13 0 -1 -8 17 -11 55 5 46
20 -4 5 -8 9 -11 9 -3 0 -2 -4 1 -10z"/>
<path d="M33 3645 c0 -27 2 -38 4 -22 2 15 2 37 0 50 -2 12 -4 0 -4 -28z"/>
<path d="M6080 3660 c0 -13 7 -20 20 -20 18 0 19 3 10 20 -6 11 -15 20 -20 20
-6 0 -10 -9 -10 -20z"/>
<path d="M5947 3644 c-14 -19 -15 -24 -4 -24 8 0 17 10 20 22 8 30 5 30 -16 2z"/>
<path d="M5141 3657 c2 -1 13 -9 24 -17 19 -14 19 -14 6 3 -7 9 -18 17 -24 17
-6 0 -8 -1 -6 -3z"/>
<path d="M5127 3624 c3 -7 9 -14 14 -14 14 0 10 17 -5 23 -10 4 -13 1 -9 -9z"/>
<path d="M6160 3626 c0 -2 7 -7 16 -10 8 -3 12 -2 9 4 -6 10 -25 14 -25 6z"/>
<path d="M5048 3588 c5 -5 16 -8 23 -6 8 3 3 7 -10 11 -17 4 -21 3 -13 -5z"/>
<path d="M32 3560 c0 -19 2 -27 5 -17 2 9 2 25 0 35 -3 9 -5 1 -5 -18z"/>
<path d="M6320 3564 c0 -9 6 -14 13 -11 6 2 20 0 30 -5 16 -8 17 -7 5 11 -15
25 -48 28 -48 5z"/>
<path d="M8000 3570 c0 -6 7 -10 15 -10 8 0 15 2 15 4 0 2 -7 6 -15 10 -8 3
-15 1 -15 -4z"/>
<path d="M5050 3559 c-12 -8 -9 -9 10 -4 l25 6 -24 -21 c-13 -11 -22 -23 -19
-25 2 -3 17 9 33 25 25 26 26 30 9 30 -10 0 -26 -5 -34 -11z"/>
<path d="M8732 3545 c0 -16 2 -22 5 -12 2 9 2 23 0 30 -3 6 -5 -1 -5 -18z"/>
<path d="M5876 3547 c4 -12 2 -17 -7 -15 -8 2 -13 -3 -11 -11 1 -7 -4 -18 -11
-25 -8 -6 -17 -22 -20 -34 -6 -26 -1 -24 17 7 6 10 20 30 30 45 15 21 16 30 7
39 -10 9 -11 8 -5 -6z"/>
<path d="M8000 3530 c0 -5 5 -10 11 -10 5 0 7 5 4 10 -3 6 -8 10 -11 10 -2 0
-4 -4 -4 -10z"/>
<path d="M32 3500 c0 -14 2 -19 5 -12 2 6 2 18 0 25 -3 6 -5 1 -5 -13z"/>
<path d="M6320 3507 c0 -8 11 -19 25 -25 25 -12 25 -12 9 13 -18 27 -34 33
-34 12z"/>
<path d="M4900 3499 c0 -5 5 -7 10 -4 6 3 10 8 10 11 0 2 -4 4 -10 4 -5 0 -10
-5 -10 -11z"/>
<path d="M4965 3490 c-4 -6 1 -7 11 -3 13 5 15 3 9 -7 -5 -9 -4 -11 4 -6 6 4
9 12 6 17 -8 12 -22 12 -30 -1z"/>
<path d="M5890 3490 c0 -5 5 -10 10 -10 6 0 10 5 10 10 0 6 -4 10 -10 10 -5 0
-10 -4 -10 -10z"/>
<path d="M8080 3490 c0 -6 7 -10 15 -10 8 0 15 2 15 4 0 2 -7 6 -15 10 -8 3
-15 1 -15 -4z"/>
<path d="M4905 3470 c-3 -5 -1 -10 4 -10 6 0 11 5 11 10 0 6 -2 10 -4 10 -3 0
-8 -4 -11 -10z"/>
<path d="M4936 3454 c-6 -15 -4 -15 11 -3 10 7 20 15 22 16 2 2 -3 3 -11 3 -9
0 -19 -7 -22 -16z"/>
<path d="M5860 3460 c0 -5 5 -10 10 -10 6 0 10 5 10 10 0 6 -4 10 -10 10 -5 0
-10 -4 -10 -10z"/>
<path d="M6400 3466 c0 -2 7 -7 16 -10 8 -3 12 -2 9 4 -6 10 -25 14 -25 6z"/>
<path d="M8080 3450 c0 -5 5 -10 11 -10 5 0 7 5 4 10 -3 6 -8 10 -11 10 -2 0
-4 -4 -4 -10z"/>
<path d="M4897 3436 c-4 -10 -1 -13 8 -9 8 3 12 9 9 14 -7 12 -11 11 -17 -5z"/>
<path d="M6248 3443 c7 -3 16 -2 19 1 4 3 -2 6 -13 5 -11 0 -14 -3 -6 -6z"/>
<path d="M5787 3406 c4 -11 2 -17 -3 -13 -5 3 -10 -3 -10 -14 0 -18 2 -19 12
-4 8 11 14 13 19 5 7 -12 34 16 34 35 0 6 -6 1 -14 -9 -15 -20 -15 -20 -30 0
-15 18 -15 18 -8 0z"/>
<path d="M8160 3410 c0 -6 7 -10 15 -10 8 0 15 2 15 4 0 2 -7 6 -15 10 -8 3
-15 1 -15 -4z"/>
<path d="M4770 3406 c0 -2 9 -6 20 -9 11 -3 18 -1 14 4 -5 9 -34 13 -34 5z"/>
<path d="M6480 3401 c0 -9 33 -41 44 -41 4 0 2 8 -3 19 -11 20 -41 36 -41 22z"/>
<path d="M6640 3370 c0 -5 5 -10 10 -10 6 0 10 5 10 10 0 6 -4 10 -10 10 -5 0
-10 -4 -10 -10z"/>
<path d="M8160 3370 c0 -5 5 -10 11 -10 5 0 7 5 4 10 -3 6 -8 10 -11 10 -2 0
-4 -4 -4 -10z"/>
<path d="M8240 3330 c0 -6 7 -10 15 -10 8 0 15 2 15 4 0 2 -7 6 -15 10 -8 3
-15 1 -15 -4z"/>
<path d="M6640 3315 c0 -8 5 -15 10 -15 6 0 10 7 10 15 0 8 -4 15 -10 15 -5 0
-10 -7 -10 -15z"/>
<path d="M5699 3303 c-12 -16 -12 -17 2 -6 9 7 19 10 22 6 4 -3 7 -1 7 5 0 17
-16 15 -31 -5z"/>
<path d="M5744 3309 c-3 -6 -2 -15 3 -20 5 -5 9 -1 9 11 0 23 -2 24 -12 9z"/>
<path d="M6160 3290 c0 -5 5 -10 11 -10 5 0 7 5 4 10 -3 6 -8 10 -11 10 -2 0
-4 -4 -4 -10z"/>
<path d="M8240 3290 c0 -5 5 -10 11 -10 5 0 7 5 4 10 -3 6 -8 10 -11 10 -2 0
-4 -4 -4 -10z"/>
<path d="M6480 3265 c0 -8 5 -15 10 -15 6 0 10 7 10 15 0 8 -4 15 -10 15 -5 0
-10 -7 -10 -15z"/>
<path d="M6645 3270 c3 -5 11 -10 16 -10 6 0 7 5 4 10 -3 6 -11 10 -16 10 -6
0 -7 -4 -4 -10z"/>
<path d="M5665 3259 c-4 -6 -5 -12 -2 -15 2 -3 7 2 10 11 7 17 1 20 -8 4z"/>
<path d="M6560 3220 c0 -11 5 -20 10 -20 6 0 10 9 10 20 0 11 -4 20 -10 20 -5
0 -10 -9 -10 -20z"/>
<path d="M5636 3215 c4 -8 11 -15 16 -15 6 0 5 6 -2 15 -7 8 -14 15 -16 15 -2
0 -1 -7 2 -15z"/>
<path d="M8400 3182 c0 -14 6 -22 16 -22 14 0 15 3 3 18 -7 9 -15 19 -16 21
-2 2 -3 -5 -3 -17z"/>
<path d="M8753 3160 c0 -25 2 -35 4 -22 2 12 2 32 0 45 -2 12 -4 2 -4 -23z"/>
<path d="M6800 3161 c0 -9 33 -41 44 -41 4 0 2 8 -3 19 -11 20 -41 36 -41 22z"/>
<path d="M5585 3150 c-4 -6 -13 -9 -21 -6 -7 3 -16 0 -20 -6 -4 -6 -3 -8 4 -4
6 3 13 2 17 -4 4 -6 12 -4 22 5 8 9 13 18 10 21 -3 3 -8 0 -12 -6z"/>
<path d="M8400 3136 c0 -9 5 -16 10 -16 6 0 10 4 10 9 0 6 -4 13 -10 16 -5 3
-10 -1 -10 -9z"/>
<path d="M5472 3071 c-10 -6 -8 -10 9 -14 13 -4 25 -4 28 -2 2 3 -1 5 -8 5 -7
0 -9 5 -6 10 8 12 -5 13 -23 1z"/>
<path d="M8480 3050 c0 -5 5 -10 11 -10 5 0 7 5 4 10 -3 6 -8 10 -11 10 -2 0
-4 -4 -4 -10z"/>
<path d="M6800 3029 c0 -5 5 -7 10 -4 6 3 10 8 10 11 0 2 -4 4 -10 4 -5 0 -10
-5 -10 -11z"/>
<path d="M5410 3016 c7 -7 13 -7 20 0 6 6 3 10 -10 10 -13 0 -16 -4 -10 -10z"/>
<path d="M6865 2970 c-3 -5 -1 -10 4 -10 6 0 11 5 11 10 0 6 -2 10 -4 10 -3 0
-8 -4 -11 -10z"/>
<path d="M8560 2945 c0 -32 2 -36 15 -25 8 7 15 18 15 25 0 7 -7 18 -15 25
-13 11 -15 7 -15 -25z"/>
<path d="M8480 2934 c0 -22 2 -25 15 -14 8 7 15 19 15 26 0 8 -7 14 -15 14
-10 0 -15 -10 -15 -26z"/>
<path d="M8723 2920 c0 -25 2 -35 4 -22 2 12 2 32 0 45 -2 12 -4 2 -4 -23z"/>
<path d="M5250 2916 c0 -2 7 -7 16 -10 8 -3 12 -2 9 4 -6 10 -25 14 -25 6z"/>
<path d="M7010 2789 c0 -5 5 -7 10 -4 6 3 10 8 10 11 0 2 -4 4 -10 4 -5 0 -10
-5 -10 -11z"/>
<path d="M6971 2754 c0 -11 3 -14 6 -6 3 7 2 16 -1 19 -3 4 -6 -2 -5 -13z"/>
<path d="M7021 2734 c0 -11 3 -14 6 -6 3 7 2 16 -1 19 -3 4 -6 -2 -5 -13z"/>
<path d="M6880 2730 c0 -5 5 -10 11 -10 5 0 7 5 4 10 -3 6 -8 10 -11 10 -2 0
-4 -4 -4 -10z"/>
<path d="M6983 2726 c-6 -8 -11 -36 -10 -62 1 -27 -2 -58 -7 -69 -8 -18 -7
-18 7 1 9 12 18 48 20 83 3 33 4 61 3 61 0 -1 -6 -7 -13 -14z"/>
<path d="M8773 2680 c0 -25 2 -35 4 -22 2 12 2 32 0 45 -2 12 -4 2 -4 -23z"/>
<path d="M6961 2644 c0 -11 3 -14 6 -6 3 7 2 16 -1 19 -3 4 -6 -2 -5 -13z"/>
<path d="M6967 2563 c-4 -3 -7 -13 -7 -22 1 -13 3 -13 11 2 11 19 8 33 -4 20z"/>
<path d="M6919 2527 c-13 -28 -5 -62 11 -52 5 3 15 16 21 28 9 19 8 19 -10 -3
-19 -23 -21 -24 -21 -4 0 11 5 25 12 32 6 6 9 15 5 18 -3 4 -12 -5 -18 -19z"/>
<path d="M6888 2487 c-3 -15 -3 -25 0 -22 3 2 12 -1 21 -8 14 -10 14 -10 5 3
-7 8 -14 24 -16 35 -3 16 -5 15 -10 -8z"/>
<path d="M7631 2474 c0 -11 3 -14 6 -6 3 7 2 16 -1 19 -3 4 -6 -2 -5 -13z"/>
<path d="M6890 2446 c0 -2 8 -10 18 -17 15 -13 16 -12 3 4 -13 16 -21 21 -21
13z"/>
<path d="M7594 2392 c-12 -34 -18 -65 -13 -67 4 -3 11 11 15 32 4 21 11 41 16
44 6 4 8 17 6 30 -2 17 -9 6 -24 -39z"/>
<path d="M6801 2374 c0 -11 3 -14 6 -6 3 7 2 16 -1 19 -3 4 -6 -2 -5 -13z"/>
<path d="M8770 2340 c0 -11 5 -20 10 -20 6 0 10 9 10 20 0 11 -4 20 -10 20 -5
0 -10 -9 -10 -20z"/>
<path d="M6830 2336 c0 -8 4 -17 9 -20 5 -4 7 3 4 14 -6 23 -13 26 -13 6z"/>
<path d="M7680 2330 c0 -5 5 -10 11 -10 5 0 7 5 4 10 -3 6 -8 10 -11 10 -2 0
-4 -4 -4 -10z"/>
<path d="M6805 2311 c-7 -12 2 -31 15 -31 9 0 8 26 -2 35 -3 4 -9 2 -13 -4z"/>
<path d="M7587 2274 c-8 -9 14 -54 24 -48 14 8 10 54 -4 54 -8 0 -16 -3 -20
-6z"/>
<path d="M7550 2256 c0 -7 -8 -24 -18 -37 -22 -28 -39 -84 -22 -74 5 3 10 17
10 30 0 13 6 28 14 32 14 8 34 63 22 63 -3 0 -6 -6 -6 -14z"/>
<path d="M7760 2256 c0 -9 5 -16 10 -16 6 0 10 4 10 9 0 6 -4 13 -10 16 -5 3
-10 -1 -10 -9z"/>
<path d="M7840 2250 c0 -5 5 -10 10 -10 6 0 10 5 10 10 0 6 -4 10 -10 10 -5 0
-10 -4 -10 -10z"/>
<path d="M6722 2220 c0 -14 2 -19 5 -12 2 6 2 18 0 25 -3 6 -5 1 -5 -13z"/>
<path d="M6740 2234 c0 -1 6 -7 14 -13 10 -9 15 -8 19 2 3 8 -3 13 -14 13 -11
0 -19 -1 -19 -2z"/>
<path d="M7854 2204 c3 -8 6 -22 6 -30 0 -8 5 -14 10 -14 17 0 11 47 -6 54
-12 5 -15 2 -10 -10z"/>
<path d="M6743 2195 c0 -8 4 -12 9 -9 5 3 6 10 3 15 -9 13 -12 11 -12 -6z"/>
<path d="M7540 2180 c-9 -6 -10 -10 -3 -10 6 0 15 5 18 10 8 12 4 12 -15 0z"/>
<path d="M7665 2170 c-3 -5 -1 -10 4 -10 6 0 11 5 11 10 0 6 -2 10 -4 10 -3 0
-8 -4 -11 -10z"/>
<path d="M7898 2168 c-6 -14 3 -26 63 -83 l21 -20 -11 22 c-6 12 -19 28 -29
35 -10 7 -22 24 -28 37 -8 19 -12 21 -16 9z"/>
<path d="M6645 2150 c-3 -6 1 -7 9 -4 18 7 21 14 7 14 -6 0 -13 -4 -16 -10z"/>
<path d="M6655 2130 c-3 -5 -1 -10 4 -10 6 0 11 5 11 10 0 6 -2 10 -4 10 -3 0
-8 -4 -11 -10z"/>
<path d="M7491 2123 c7 -12 15 -20 18 -17 3 2 -3 12 -13 22 -17 16 -18 16 -5
-5z"/>
<path d="M7840 2121 c0 -9 33 -41 44 -41 4 0 2 8 -3 19 -11 20 -41 36 -41 22z"/>
<path d="M7461 2080 c-5 -16 -8 -30 -6 -30 2 0 10 14 19 30 8 17 11 30 6 30
-4 0 -13 -13 -19 -30z"/>
<path d="M7515 2090 c-3 -5 1 -10 10 -10 9 0 13 5 10 10 -3 6 -8 10 -10 10 -2
0 -7 -4 -10 -10z"/>
<path d="M8000 2026 c0 -8 13 -28 29 -45 l30 -32 -16 40 c-15 39 -43 63 -43
37z"/>
<path d="M7425 2009 c-4 -6 -4 -13 -1 -16 3 -4 6 -1 6 6 0 7 5 9 12 5 7 -4 8
-3 4 4 -9 15 -13 15 -21 1z"/>
<path d="M7999 1965 c-4 -31 6 -62 27 -82 l24 -22 0 25 c0 14 -5 30 -10 37 -6
7 -17 21 -25 32 -8 11 -15 16 -16 10z"/>
<path d="M7394 1942 c1 -17 19 -17 24 0 3 10 1 10 -6 -1 -9 -12 -11 -12 -14 0
-3 9 -5 10 -4 1z"/>
<path d="M7870 1930 c0 -5 5 -10 10 -10 6 0 10 5 10 10 0 6 -4 10 -10 10 -5 0
-10 -4 -10 -10z"/>
<path d="M8093 1891 c4 -20 3 -30 -3 -26 -6 3 -10 -1 -10 -9 0 -9 9 -16 21
-16 17 0 20 5 17 37 -2 20 -9 39 -17 41 -11 4 -13 -2 -8 -27z"/>
<path d="M7334 1865 c-4 -9 -4 -19 0 -22 3 -4 6 2 6 13 0 16 2 17 10 4 6 -9
10 -10 10 -3 0 19 -20 26 -26 8z"/>
<path d="M7920 1860 c0 -11 5 -20 10 -20 6 0 10 9 10 20 0 11 -4 20 -10 20 -5
0 -10 -9 -10 -20z"/>
<path d="M8160 1796 c0 -15 16 -30 43 -39 20 -7 16 4 -11 36 -18 20 -32 22
-32 3z"/>
<path d="M7260 1786 c0 -8 4 -17 9 -20 5 -4 7 3 4 14 -6 23 -13 26 -13 6z"/>
<path d="M7237 1733 c-4 -3 -7 -11 -7 -17 0 -6 5 -5 12 2 6 6 9 14 7 17 -3 3
-9 2 -12 -2z"/>
<path d="M7184 1708 c-4 -6 -3 -8 4 -4 6 3 15 -2 21 -11 9 -16 10 -16 11 -2 0
20 -27 33 -36 17z"/>
<path d="M7260 1705 c0 -8 2 -15 4 -15 2 0 6 7 10 15 3 8 1 15 -4 15 -6 0 -10
-7 -10 -15z"/>
<path d="M8241 1682 c1 -20 3 -29 6 -19 2 9 11 17 18 17 18 0 9 26 -11 34 -11
4 -14 -3 -13 -32z"/>
<path d="M7840 1690 c0 -5 5 -10 11 -10 5 0 7 5 4 10 -3 6 -8 10 -11 10 -2 0
-4 -4 -4 -10z"/>
<path d="M8102 1625 c0 -16 2 -22 5 -12 2 9 2 23 0 30 -3 6 -5 -1 -5 -18z"/>
<path d="M8253 1605 c-17 -19 -16 -22 7 -35 18 -10 20 -8 20 20 0 33 -8 37
-27 15z"/>
<path d="M8126 1585 c4 -8 8 -15 10 -15 2 0 4 7 4 15 0 8 -4 15 -10 15 -5 0
-7 -7 -4 -15z"/>
<path d="M8320 1590 c0 -6 15 -27 34 -46 21 -21 36 -49 39 -67 4 -30 4 -30 5
6 2 31 -4 43 -38 77 -22 22 -40 35 -40 30z"/>
<path d="M8305 1510 c3 -5 8 -10 11 -10 2 0 4 5 4 10 0 6 -5 10 -11 10 -5 0
-7 -4 -4 -10z"/>
<path d="M8340 1504 c0 -8 5 -12 10 -9 6 3 10 10 10 16 0 5 -4 9 -10 9 -5 0
-10 -7 -10 -16z"/>
<path d="M8332 1464 c1 -9 9 -19 16 -22 9 -3 13 2 10 14 -1 9 -9 19 -16 22 -9
3 -13 -2 -10 -14z"/>
<path d="M8240 1420 c0 -11 2 -20 4 -20 2 0 6 9 9 20 3 11 1 20 -4 20 -5 0 -9
-9 -9 -20z"/>
<path d="M8401 1424 c0 -11 3 -14 6 -6 3 7 2 16 -1 19 -3 4 -6 -2 -5 -13z"/>
<path d="M8420 1370 c0 -5 5 -10 10 -10 6 0 10 5 10 10 0 6 -4 10 -10 10 -5 0
-10 -4 -10 -10z"/>
<path d="M8286 1345 c4 -8 8 -15 10 -15 2 0 4 7 4 15 0 8 -4 15 -10 15 -5 0
-7 -7 -4 -15z"/>
<path d="M8322 1300 c0 -14 2 -19 5 -12 2 6 2 18 0 25 -3 6 -5 1 -5 -13z"/>
<path d="M8480 1224 c0 -26 7 -43 25 -60 l25 -23 0 23 c0 25 -25 82 -41 91 -5
4 -9 -10 -9 -31z"/>
<path d="M8400 1124 c0 -14 4 -23 9 -20 5 3 7 15 4 26 -7 28 -13 25 -13 -6z"/>
<path d="M8480 1029 c0 -6 5 -19 11 -30 7 -15 7 -24 -1 -34 -8 -10 -8 -15 1
-21 7 -4 9 -3 6 3 -4 6 0 16 9 23 11 10 12 15 3 21 -9 5 -8 11 4 24 25 24 21
31 -5 9 -19 -17 -21 -17 -15 -1 4 9 2 17 -3 17 -6 0 -10 -5 -10 -11z"/>
<path d="M8437 923 c-4 -3 -7 -18 -7 -32 0 -21 -2 -23 -10 -11 -5 8 -10 11
-11 5 0 -5 -2 -23 -4 -40 -1 -16 -1 -24 2 -17 3 6 10 9 15 6 6 -4 8 -2 5 3 -9
14 18 65 29 55 4 -4 3 0 -4 9 -6 9 -9 19 -5 22 3 4 4 7 1 7 -2 0 -8 -3 -11 -7z"/>
<path d="M8336 781 c-12 -13 -15 -25 -9 -35 7 -13 11 -12 22 7 13 20 13 21 -2
8 -22 -17 -22 -3 0 21 9 10 14 18 11 18 -3 0 -13 -9 -22 -19z"/>
<path d="M8248 709 c14 -15 16 -33 3 -25 -4 3 -7 -8 -5 -25 2 -16 0 -27 -5
-24 -5 3 -12 1 -15 -4 -4 -5 2 -8 11 -7 10 2 28 20 40 42 13 21 28 38 34 36 6
-1 8 2 4 8 -4 7 -12 7 -18 2 -14 -10 -27 -10 -47 2 -12 7 -13 6 -2 -5z m22
-39 c-6 -11 -13 -20 -16 -20 -2 0 0 9 6 20 6 11 13 20 16 20 2 0 0 -9 -6 -20z"/>
<path d="M8180 610 c0 -5 5 -10 10 -10 6 0 10 5 10 10 0 6 -4 10 -10 10 -5 0
-10 -4 -10 -10z"/>
<path d="M8169 580 c-1 -5 -2 -14 -3 -20 0 -5 -10 -17 -21 -26 -19 -16 -19
-16 4 -2 21 12 41 58 26 58 -3 0 -6 -4 -6 -10z"/>
<path d="M8080 501 c0 -6 4 -13 10 -16 6 -3 7 1 4 9 -7 18 -14 21 -14 7z"/>
<path d="M8021 477 c2 -1 13 -9 24 -17 19 -14 19 -14 6 3 -7 9 -18 17 -24 17
-6 0 -8 -1 -6 -3z"/>
<path d="M8000 446 c0 -2 8 -10 18 -17 15 -13 16 -12 3 4 -13 16 -21 21 -21
13z"/>
<path d="M7915 360 c3 -5 8 -10 11 -10 2 0 4 5 4 10 0 6 -5 10 -11 10 -5 0 -7
-4 -4 -10z"/>
<path d="M7468 133 c7 -3 16 -2 19 1 4 3 -2 6 -13 5 -11 0 -14 -3 -6 -6z"/>
</g>
</svg>
